<?xml version="1.0" standalone="no"?>
<!DOCTYPE svg PUBLIC "-//W3C//DTD SVG 20010904//EN"
 "http://www.w3.org/TR/2001/REC-SVG-20010904/DTD/svg10.dtd">
<svg version="1.0" xmlns="http://www.w3.org/2000/svg"
 width="700.000000pt" height="700.000000pt" viewBox="0 0 700.000000 700.000000"
 preserveAspectRatio="xMidYMid meet">
<metadata>
Created by potrace 1.14, written by Peter Selinger 2001-2017
</metadata>
<g transform="translate(0.000000,700.000000) scale(0.100000,-0.100000)"
fill="#000000" stroke="none">
<path d="M2559 5664 c-57 -36 -120 -76 -139 -89 -28 -18 -747 -471 -1215 -765
-49 -31 -306 -193 -570 -360 -264 -167 -498 -314 -520 -328 -22 -14 -34 -27
-27 -30 6 -2 12 -7 12 -12 0 -8 245 -399 259 -413 5 -5 60 25 122 66 63 41
391 253 729 472 338 218 667 431 730 472 308 200 360 233 364 233 3 0 -11 -39
-29 -87 -192 -501 -383 -1102 -480 -1513 -19 -78 -65 -292 -70 -320 -3 -19
-12 -71 -20 -115 -17 -99 -23 -140 -30 -207 -3 -29 -8 -62 -10 -74 -7 -33 -19
-252 -18 -344 1 -448 126 -745 376 -894 102 -60 205 -88 334 -88 252 -1 524
145 823 441 187 186 300 318 464 541 43 58 83 112 89 121 54 71 239 350 357
539 141 225 265 448 374 675 51 105 100 206 109 225 l17 35 -6 -48 c-3 -27 -7
-56 -8 -65 -6 -32 -15 -107 -22 -172 -3 -36 -8 -78 -9 -95 -25 -236 -25 -693
-1 -835 2 -14 8 -52 12 -85 11 -86 11 -87 18 -125 44 -239 143 -481 251 -612
245 -298 614 -375 950 -199 137 72 223 138 365 281 136 135 252 284 383 485
87 136 174 291 243 432 59 124 144 328 144 349 0 6 -69 35 -152 64 -84 29
-194 67 -245 86 l-91 33 -48 -122 c-99 -255 -256 -549 -405 -757 -200 -278
-402 -435 -546 -424 -178 13 -314 243 -362 609 -22 173 -26 251 -26 540 0 260
5 385 20 560 2 22 6 74 10 115 7 88 16 168 30 280 2 19 7 60 11 90 3 30 8 62
9 70 2 8 8 51 14 95 18 123 51 325 61 370 5 22 12 60 15 84 4 25 17 91 29 147
13 57 20 107 17 112 -3 5 -115 45 -248 89 l-242 80 -32 -71 c-542 -1186 -1268
-2405 -1769 -2971 -19 -22 -87 -92 -150 -156 -323 -326 -527 -375 -605 -144
-24 72 -30 131 -29 305 0 169 7 265 29 397 2 12 9 57 15 100 7 43 13 83 15 88
1 6 5 28 9 50 127 671 441 1669 771 2445 l36 85 -34 30 c-112 100 -343 295
-349 295 -2 0 -51 -30 -109 -66z"/>
</g>
</svg>
