<svg xmlns="http://www.w3.org/2000/svg" width="116" height="112" viewBox="0 0 116 112">
  <g id="Group_565" data-name="Group 565" transform="translate(-100 -2018)">
    <rect id="Rectangle_382" data-name="Rectangle 382" width="116" height="112" transform="translate(100 2018)" fill="none"/>
    <path id="Path_460" data-name="Path 460" d="M83.824,29.479a3.456,3.456,0,0,0-3.353-1.841A8.4,8.4,0,0,0,76.949,28.9l-9.244,5.237,1.478,2.61,9.245-5.237a5.95,5.95,0,0,1,2.227-.879c.255-.017.379.009.559.326s.137.434-.009.646a5.924,5.924,0,0,1-1.9,1.458L68.654,39.1c-2.347,1.329-2.643.805-2.787.554s-.439-.776,1.907-2.106L66.3,34.936c-2.57,1.456-3.736,3.048-3.525,4.745l-6.884,3.9A22.651,22.651,0,0,0,50.2,36.546l4.688-5.335a3.035,3.035,0,0,0,.989.179c1.353,0,2.818-.89,4.38-2.667l8.082-9.2c2.494-2.839,2.776-5.143.836-6.848a3.451,3.451,0,0,0-3.771-.638,8.388,8.388,0,0,0-2.913,2.349l-7.013,7.982,2.254,1.98,7.013-7.981a5.94,5.94,0,0,1,1.815-1.562c.239-.1.362-.116.635.124.217.191.67.589-1.11,2.614L58,26.743c-1.78,2.026-2.234,1.629-2.45,1.437-.273-.24-.272-.365-.2-.614a5.955,5.955,0,0,1,1.314-2l-2.254-1.981a8.419,8.419,0,0,0-1.955,3.191,3.46,3.46,0,0,0,.185,2.449l-4.877,5.55a22.9,22.9,0,0,0-8.234-3.193l2.858-8.708c1.707-.127,3.038-1.587,3.959-4.394L50.164,6.846C51.342,3.255,50.7,1.025,48.242.22s-4.294.608-5.474,4.2L39.455,14.514l2.85.936,3.314-10.1c.841-2.562,1.41-2.376,1.688-2.284s.847.279.006,2.841L43.495,17.544c-.84,2.561-1.41,2.375-1.688,2.285s-.847-.279-.006-2.841l-2.851-.935c-.921,2.806-.712,4.768.587,5.882l-3.066,9.34c-.169,0-.339-.013-.508-.013-13.79,0-23.843,6.79-27.58,18.629a27.753,27.753,0,0,0-1.02,11.695C6.63,62.553,5.69,63.72,4.7,64.945c-1.542,1.916-3.136,3.9-4.153,5.379a3.121,3.121,0,0,0,2.108,4.853l3.158.442q.022.22.048.45c.616,5.867,1.9,18.075,12.738,18.075,9.137,0,21.254-7.758,24.73-19.307l-2.873-.864C37.088,85.176,25.6,91.144,18.6,91.144c-7.509,0-8.972-7.943-9.755-15.388-.064-.6-.122-1.159-.183-1.648l-.143-1.14L3.1,72.21a.106.106,0,0,1-.092-.071.11.11,0,0,1,.012-.117c.952-1.388,2.51-3.324,4.017-5.2,1.179-1.465,2.292-2.848,3.1-3.949l.368-.5-.094-.615a24.688,24.688,0,0,1,.826-10.967c1.931-6.116,7.649-16.328,24.245-16.523l-2.194,6.686,2.85.936,2.44-7.433a19.693,19.693,0,0,1,7.172,2.6l-6.332,7.207,2.254,1.981L48.222,38.8a19.687,19.687,0,0,1,5.049,6.267L45.352,49.55l1.478,2.611,7.6-4.305a20.966,20.966,0,0,1,1.021,6.552c0,6.822-2.393,12.129-4.5,16.81a42.369,42.369,0,0,0-3.043,8.14,26.766,26.766,0,0,0,.717,13.807l2.815-1.04A24.105,24.105,0,0,1,50.833,80a40.426,40.426,0,0,1,2.847-7.548c2.236-4.957,4.769-10.576,4.769-18.043a23.865,23.865,0,0,0-1.365-8.057L64.235,42.3a3.19,3.19,0,0,0,2.034.674,8.177,8.177,0,0,0,3.864-1.266l10.652-6.035A8.388,8.388,0,0,0,83.68,33.3a3.457,3.457,0,0,0,.144-3.822" transform="translate(116 2026.999)" fill="#004d54"/>
  </g>
</svg>
