<svg xmlns="http://www.w3.org/2000/svg" width="116" height="112" viewBox="0 0 116 112">
  <g id="Group_551" data-name="Group 551" transform="translate(-392 -1879)">
    <rect id="Rectangle_364" data-name="Rectangle 364" width="116" height="112" transform="translate(392 1879)" fill="none"/>
    <g id="Group_535" data-name="Group 535" transform="translate(-729.996 -926.695)">
      <path id="Path_457" data-name="Path 457" d="M27.912,51.894c.3-5.521-1.56-8.715-3.176-10.423A9.092,9.092,0,0,0,18.077,38.6,10.207,10.207,0,0,0,9.012,43.99c-2.838,4.758-3,11.185-1.368,14.2l2.64-1.426c-1.046-1.937-1.059-7.28,1.3-11.242a7.26,7.26,0,0,1,6.489-3.93,6.037,6.037,0,0,1,4.48,1.937c1.712,1.809,2.55,4.719,2.36,8.2Z" transform="translate(1153.995 2817.695)" fill="#004d54"/>
      <path id="Path_458" data-name="Path 458" d="M8.657,62.365C7.354,66.084,6.183,71.112,8,73.948a4.481,4.481,0,0,0,3.494,2.038c.151.013.3.021.454.021a7.149,7.149,0,0,0,4.709-2.137C19.469,71.312,22.3,66,22.3,59.9c0-10.008-5.687-11.089-8.132-11.089v3c3.4,0,5.132,2.721,5.132,8.089a16.6,16.6,0,0,1-4.666,11.751A4.126,4.126,0,0,1,11.776,73a1.475,1.475,0,0,1-1.249-.669c-.87-1.358-.5-4.8.961-8.973Z" transform="translate(1153.995 2817.695)" fill="#004d54"/>
      <path id="Path_459" data-name="Path 459" d="M63.148,25.84a3.137,3.137,0,0,0-3.037-1.667,7.277,7.277,0,0,0-3.058,1.091L49.3,29.655l1.479,2.61,7.751-4.391c1.49-.844,1.9-.7,1.9-.7a.469.469,0,0,1,.108.145.485.485,0,0,1,.068.163c0,.008-.092.431-1.576,1.271L50.1,33.814a4.237,4.237,0,0,1-1.806.709c-.175,0-.1.026-.2-.154a.494.494,0,0,1-.068-.163c0-.008.091-.43,1.576-1.272l-1.479-2.61c-2.5,1.415-3.178,2.85-3.1,4.061L32.279,41.6a17.952,17.952,0,0,0-1.463-3.019l10.539-12a2.932,2.932,0,0,0,.772.115,3.348,3.348,0,0,0,1.29-.27A7.267,7.267,0,0,0,45.948,24.4l6.776-7.713a7.25,7.25,0,0,0,1.691-2.771A3.13,3.13,0,0,0,53.4,10.6a3.133,3.133,0,0,0-3.415-.577,7.251,7.251,0,0,0-2.531,2.034l-5.88,6.693,2.254,1.979,5.879-6.692c1.131-1.287,1.562-1.284,1.563-1.284a.442.442,0,0,1,.149.1.5.5,0,0,1,.119.132c0,.008.054.437-1.072,1.718L43.694,22.42c-1.13,1.287-1.561,1.284-1.563,1.284a.467.467,0,0,1-.149-.1.483.483,0,0,1-.118-.132c0-.007-.054-.437,1.072-1.717l-2.254-1.981a7.246,7.246,0,0,0-1.691,2.772,3.143,3.143,0,0,0,.107,2.068L28.964,36.147a13.534,13.534,0,0,0-2.217-1.9l4.8-14.627a3.142,3.142,0,0,0,1.834-.951A7.257,7.257,0,0,0,34.911,15.8l3.2-9.754a7.256,7.256,0,0,0,.466-3.213A3.129,3.129,0,0,0,36.346.184,3.13,3.13,0,0,0,32.979,1a7.265,7.265,0,0,0-1.528,2.864l-2.778,8.464,2.85.936L34.3,4.8c.535-1.628.932-1.794.933-1.8a.5.5,0,0,1,.177.034.511.511,0,0,1,.161.075c0,.007.221.381-.311,2l-3.2,9.754c-.534,1.627-.932,1.794-.933,1.794a.416.416,0,0,1-.177-.034.494.494,0,0,1-.16-.075c-.005-.006-.222-.381.31-2l-2.85-.936a7.277,7.277,0,0,0-.467,3.213,3.153,3.153,0,0,0,.912,1.861L24.058,32.814a16.1,16.1,0,0,0-4.883-1.066C6.605,30.914,1,42.948.322,51.231l2.991.246c.583-7.1,5.22-17.415,15.667-16.736a11.258,11.258,0,0,1,8.244,3.934c2.715,3.236,3.974,8.46,3.369,13.974C29.741,60.417,18.98,84.355,9.034,84.355a4.931,4.931,0,0,1-4.053-1.774c-2.208-2.667-2.22-7.772-1.69-10.553L.344,71.467c-.588,3.084-.76,9.3,2.325,13.026a7.969,7.969,0,0,0,6.365,2.862c12.382,0,23.6-25.808,24.541-34.379a26.016,26.016,0,0,0-.43-8.415L46.526,36.98a3.084,3.084,0,0,0,1.762.541c.076,0,.152,0,.23-.007a7.255,7.255,0,0,0,3.058-1.09l8.933-5.061c3.609-2.044,3.427-4.132,2.639-5.523" transform="translate(1153.995 2817.695)" fill="#004d54"/>
    </g>
  </g>
</svg>
