<svg xmlns="http://www.w3.org/2000/svg" width="116" height="112" viewBox="0 0 116 112">
  <g id="Group_554" data-name="Group 554" transform="translate(-832 -1879)">
    <rect id="Rectangle_368" data-name="Rectangle 368" width="116" height="112" transform="translate(832 1879)" fill="none"/>
    <g id="Group_538" data-name="Group 538" transform="translate(-348.795 -1071.288)">
      <path id="Path_461" data-name="Path 461" d="M84.349,50.172c-13,2.06-20.438-2.131-28.317-6.569-1.928-1.086-3.877-2.179-5.92-3.189l3.8-11.9c1.742-.131,3.091-1.628,4.01-4.5L55.068,23.1c-.851,2.663-1.461,2.466-1.753,2.373s-.9-.288-.051-2.95l3.815-11.933c.852-2.663,1.458-2.468,1.754-2.374.35.113.424.228.466.52a6.115,6.115,0,0,1-.415,2.43L55.573,21.521l2.857.913,3.311-10.355A8.567,8.567,0,0,0,62.268,8.3a3.5,3.5,0,0,0-2.522-2.944c-2.494-.8-4.353.653-5.524,4.317L50.406,21.608c-.919,2.873-.686,4.871.654,5.989l-3.693,11.55a38.013,38.013,0,0,0-11.328-2.986l.1-12.323c1.622-.644,2.466-2.468,2.49-5.484l.1-12.529a8.561,8.561,0,0,0-.619-3.762A3.5,3.5,0,0,0,34.826,0h-.037a3.5,3.5,0,0,0-3.278,2.01,8.564,8.564,0,0,0-.679,3.753l-.086,10.871,3,.024.086-10.872A6.134,6.134,0,0,1,34.2,3.348c.131-.264.232-.357.606-.348s.473.092.6.358A6.112,6.112,0,0,1,35.727,5.8l-.1,12.529c-.022,2.8-.674,2.78-.969,2.787s-.947-.008-.925-2.8l-3-.023c-.024,3.016.791,4.854,2.4,5.524l-.1,12.17c-.308-.007-.61-.022-.924-.022a47.857,47.857,0,0,0-9.161.86L19.606,25.982a3.5,3.5,0,0,0,1.2-2.2A8.553,8.553,0,0,0,20.32,20l-3.7-11.971c-1.135-3.673-2.982-5.142-5.481-4.371A3.5,3.5,0,0,0,8.589,6.576a8.571,8.571,0,0,0,.49,3.782l3.209,10.388,2.866-.886L11.945,9.472a6.117,6.117,0,0,1-.391-2.433c.045-.292.12-.407.471-.516.3-.091.905-.278,1.731,2.39l3.7,11.971a6.127,6.127,0,0,1,.392,2.434c-.046.292-.12.407-.472.516-.294.091-.9.281-1.73-2.391l-2.866.886c.89,2.883,2.223,4.392,3.964,4.542L20.025,37.5C6.234,41.2.3,50.372,0,50.856l2.539,1.6a27.635,27.635,0,0,1,6.919-6.76,35.956,35.956,0,0,1,11.461-5.3l1.875,6.07,2.866-.886-1.808-5.851a44.181,44.181,0,0,1,8.264-.764c.307,0,.6.014.9.021l-.042,5.342,3,.024.041-5.174a35,35,0,0,1,10.436,2.836l-1.638,5.122,2.858.914L49.189,43.3c1.811.913,3.578,1.905,5.37,2.914,6.56,3.7,13.3,7.494,23.283,7.494a44.5,44.5,0,0,0,6.977-.575Z" transform="translate(1198.794 2976.288)" fill="#004d54"/>
    </g>
  </g>
</svg>
