<svg xmlns="http://www.w3.org/2000/svg" width="116" height="112" viewBox="0 0 116 112">
  <g id="Group_550" data-name="Group 550" transform="translate(-246 -1879)">
    <rect id="Rectangle_363" data-name="Rectangle 363" width="116" height="112" transform="translate(246 1879)" fill="none"/>
    <g id="Group_532" data-name="Group 532" transform="translate(-1310 -430.917)">
      <path id="Path_520" data-name="Path 520" d="M53.77,37.21c-11.088,0-20.109,9.482-20.109,21.137a21.855,21.855,0,0,0,4.371,13.159V82.094l1.238.22a91,91,0,0,0,14.5,1.127,102.17,102.17,0,0,0,14.394-1.122l1.252-.2L69.5,71.511a21.842,21.842,0,0,0,4.376-13.164c0-11.655-9.021-21.137-20.108-21.137m0,43.231a93.35,93.35,0,0,1-12.738-.89V76.964a95.763,95.763,0,0,0,12.738.858,101.8,101.8,0,0,0,12.688-.88l-.021,2.593a100.364,100.364,0,0,1-12.667.906M66.835,70.055l-.324.4-.028,3.45a100.6,100.6,0,0,1-12.713.912,93.335,93.335,0,0,1-12.738-.89V70.466l-.328-.411a18.807,18.807,0,0,1-4.043-11.708c0-10,7.674-18.137,17.109-18.137s17.108,8.136,17.108,18.137a18.807,18.807,0,0,1-4.043,11.708" transform="translate(1560 2325.917)" fill="#004d54"/>
      <path id="Path_521" data-name="Path 521" d="M35.755,44.907,35.842,34.3a21.842,21.842,0,0,0,4.376-13.164C40.218,9.481,31.2,0,20.109,0S0,9.481,0,21.136A21.847,21.847,0,0,0,4.372,34.295V44.883l1.237.22a91.019,91.019,0,0,0,14.5,1.127A102.153,102.153,0,0,0,34.5,45.108ZM3,21.136C3,11.135,10.675,3,20.109,3s17.109,8.135,17.109,18.136a18.8,18.8,0,0,1-4.044,11.708l-.323.406L32.823,36.7a100.447,100.447,0,0,1-12.714.912,93.316,93.316,0,0,1-12.737-.89V33.255l-.328-.41A18.809,18.809,0,0,1,3,21.136M20.109,43.23a93.317,93.317,0,0,1-12.737-.89V39.753a95.757,95.757,0,0,0,12.737.858,101.622,101.622,0,0,0,12.689-.88l-.022,2.594a100.584,100.584,0,0,1-12.667.9" transform="translate(1560 2325.917)" fill="#004d54"/>
      <path id="Path_522" data-name="Path 522" d="M31.769,17.762l2.767-1.16a20.9,20.9,0,0,0-8.988-10.16L24.085,9.061a17.879,17.879,0,0,1,7.684,8.7" transform="translate(1560 2325.917)" fill="#004d54"/>
      <path id="Path_523" data-name="Path 523" d="M59.776,42.917l-1.463,2.619A17.884,17.884,0,0,1,66,54.237l2.766-1.16a20.893,20.893,0,0,0-8.987-10.16" transform="translate(1560 2325.917)" fill="#004d54"/>
      <path id="Path_524" data-name="Path 524" d="M87.432,0C76.344,0,67.323,9.482,67.323,21.137A21.847,21.847,0,0,0,71.7,34.3l.087,10.606,1.252.2a102.135,102.135,0,0,0,14.394,1.122,91.019,91.019,0,0,0,14.5-1.127l1.237-.22V34.3a21.849,21.849,0,0,0,4.371-13.159C107.54,9.482,98.519,0,87.432,0m0,43.231a100.348,100.348,0,0,1-12.667-.906l-.022-2.593a101.818,101.818,0,0,0,12.689.88,95.758,95.758,0,0,0,12.737-.858v2.587a93.331,93.331,0,0,1-12.737.89M100.5,32.845l-.328.411v3.466a93.315,93.315,0,0,1-12.737.89A100.607,100.607,0,0,1,74.718,36.7l-.028-3.45-.324-.4a18.807,18.807,0,0,1-4.043-11.708C70.323,11.136,78,3,87.432,3s17.108,8.136,17.108,18.137A18.807,18.807,0,0,1,100.5,32.845" transform="translate(1560 2325.917)" fill="#004d54"/>
      <path id="Path_525" data-name="Path 525" d="M73,16.6l2.767,1.16a17.874,17.874,0,0,1,7.684-8.7L81.992,6.442A20.9,20.9,0,0,0,73,16.6" transform="translate(1560 2325.917)" fill="#004d54"/>
    </g>
  </g>
</svg>
