<svg xmlns="http://www.w3.org/2000/svg" width="116" height="112" viewBox="0 0 116 112">
  <g id="Group_563" data-name="Group 563" transform="translate(-392 -2018)">
    <rect id="Rectangle_380" data-name="Rectangle 380" width="116" height="112" transform="translate(392 2018)" fill="none"/>
    <g id="Group_545" data-name="Group 545" transform="translate(-256.993 -991.524)">
      <path id="Path_510" data-name="Path 510" d="M22.354,88.08A11.022,11.022,0,0,1,11.839,77.4V53.5a.259.259,0,0,0-.214-.256L4.2,51.878A5.128,5.128,0,0,1,0,46.835V34.254a5.07,5.07,0,0,1,2.33-4.3C7.653,26.64,17.438,25.4,22.354,25.4s14.7,1.236,20.024,4.554a5.073,5.073,0,0,1,2.33,4.3V46.835a5.128,5.128,0,0,1-4.2,5.043l-7.424,1.363a.26.26,0,0,0-.213.256V77.4A11.023,11.023,0,0,1,22.354,88.08m0-59.676c-4.925,0-13.9,1.272-18.437,4.1A2.052,2.052,0,0,0,3,34.254V46.835a2.127,2.127,0,0,0,1.743,2.092l7.424,1.364A3.259,3.259,0,0,1,14.839,53.5V77.4a8.008,8.008,0,0,0,7.515,7.681A8.009,8.009,0,0,0,29.87,77.4V53.5a3.259,3.259,0,0,1,2.672-3.207l7.423-1.363a2.127,2.127,0,0,0,1.743-2.092V34.254a2.053,2.053,0,0,0-.916-1.75c-4.538-2.828-13.514-4.1-18.438-4.1" transform="translate(665.993 3015.524)" fill="#004d54"/>
      <path id="Path_511" data-name="Path 511" d="M6.949,37.994,5.886,35.189a52.4,52.4,0,0,1,16.469-2.838,52.4,52.4,0,0,1,16.469,2.838L37.76,37.994a50.115,50.115,0,0,0-15.4-2.643A50.116,50.116,0,0,0,6.949,37.994" transform="translate(665.993 3015.524)" fill="#004d54"/>
      <path id="Path_512" data-name="Path 512" d="M6.949,13.3l-1.063-2.8A52.4,52.4,0,0,1,22.355,7.653a52.4,52.4,0,0,1,16.469,2.838L37.76,13.3a50.115,50.115,0,0,0-15.4-2.643A50.116,50.116,0,0,0,6.949,13.3" transform="translate(665.993 3015.524)" fill="#004d54"/>
      <path id="Path_513" data-name="Path 513" d="M41.39,6.268C35.068,3.871,26.543,3,22.354,3S9.64,3.871,3.318,6.268L2.255,3.463A63.955,63.955,0,0,1,22.354,0a63.946,63.946,0,0,1,20.1,3.463Z" transform="translate(665.993 3015.524)" fill="#004d54"/>
      <path id="Path_514" data-name="Path 514" d="M10.758,20.926,9.695,18.121a40.266,40.266,0,0,1,12.659-2.183,40.266,40.266,0,0,1,12.659,2.183L33.95,20.926a37.737,37.737,0,0,0-11.6-1.988,37.737,37.737,0,0,0-11.6,1.988" transform="translate(665.993 3015.524)" fill="#004d54"/>
      <path id="Path_515" data-name="Path 515" d="M35.4,98.952A15.2,15.2,0,0,1,24.888,94.78a11.92,11.92,0,0,1-4.033-8.2h3c0,3.731,4.607,9.372,11.55,9.372a11.6,11.6,0,0,0,8.867-5.123c2.424-3.449,4.481-9.875.513-20.9C42.923,64.762,43.1,59.9,45.3,55.865a15.76,15.76,0,0,1,10.416-7.6,55.032,55.032,0,0,1,13.138-.928c8.55.1,13.911-.151,16.39-6.039,1.718-4.081.523-9.394-2.906-12.92-2.755-2.834-9.243-6.864-21.745-2.012l-1.085-2.8c10.307-4,19.414-3.01,24.982,2.717,4.243,4.366,5.69,11.017,3.519,16.176-3.386,8.045-11.066,7.958-19.187,7.875a52.909,52.909,0,0,0-12.432.851,12.76,12.76,0,0,0-8.456,6.11c-1.776,3.256-1.888,7.273-.324,11.616,4.4,12.231,1.951,19.605-.882,23.637a14.5,14.5,0,0,1-11.321,6.4" transform="translate(665.993 3015.524)" fill="#004d54"/>
    </g>
  </g>
</svg>
