<svg xmlns="http://www.w3.org/2000/svg" width="116" height="112" viewBox="0 0 116 112">
  <g id="Group_558" data-name="Group 558" transform="translate(-1415 -1879)">
    <rect id="Rectangle_375" data-name="Rectangle 375" width="116" height="112" transform="translate(1415 1879)" fill="none"/>
    <g id="Group_542" data-name="Group 542" transform="translate(204.388 -1171.212)">
      <path id="Path_468" data-name="Path 468" d="M94.522,5.262h-56.8A7.73,7.73,0,0,0,30,12.983v2.328c-2.61-.258-3.87-2.546-5.614-6.188C22.444,5.058,20.021,0,13.56,0A6.547,6.547,0,0,0,7.453,3.49C5.757,6.709,6.4,11.48,9.064,15.362c1.951,2.848,5.067,5.462,7.815,7.769,2.714,2.276,5.789,4.857,5.843,6.328,0,.11.014.369-.39.762-1.237,1.2-5.285,1.432-8.856,1.633-6,.336-12.8.718-13.443,5.767a3.507,3.507,0,0,0,.788,2.767c1.932,2.3,6.827,2.54,12.494,2.813,4.45.215,11.176.538,11.176,2.483,0,1.287-5.659,1.5-8.379,1.6-5.348.2-10.4.387-10.4,4.1a2.506,2.506,0,0,0,.839,1.855c1.824,1.723,7.564,2.1,12.218,2.1,2.328,0,4.383-.094,5.541-.161l-.171-2.995c-6.875.391-13.7-.05-15.292-.949.929-.715,5.081-.87,7.377-.955,5.539-.206,11.267-.419,11.267-4.6,0-4.8-7.133-5.147-14.031-5.479-3.9-.189-9.251-.446-10.34-1.744A.512.512,0,0,1,3.008,38c.33-2.575,5.8-2.882,10.636-3.153,4.494-.252,8.739-.49,10.781-2.479a3.935,3.935,0,0,0,1.3-3.022c-.1-2.8-3.26-5.45-6.914-8.516-2.6-2.182-5.549-4.656-7.269-7.166-2.015-2.942-2.6-6.551-1.431-8.777A3.586,3.586,0,0,1,13.56,3c4.572,0,6.218,3.438,8.124,7.419,1.724,3.6,3.678,7.649,8.32,7.918V53.7a7.73,7.73,0,0,0,7.722,7.721h56.8a7.73,7.73,0,0,0,7.721-7.721V12.983a7.73,7.73,0,0,0-7.721-7.721M99.243,53.7a4.726,4.726,0,0,1-4.721,4.721h-56.8A4.726,4.726,0,0,1,33,53.7V12.983a4.727,4.727,0,0,1,4.722-4.721h56.8a4.727,4.727,0,0,1,4.721,4.721Z" transform="translate(1217.612 3077.212)" fill="#004d54"/>
      <path id="Path_469" data-name="Path 469" d="M56.144,24.43a3.387,3.387,0,1,0,3.387,3.387,3.386,3.386,0,0,0-3.387-3.387" transform="translate(1217.612 3077.212)" fill="#004d54"/>
      <path id="Path_470" data-name="Path 470" d="M70.1,24.43a3.387,3.387,0,1,0,3.387,3.387A3.386,3.386,0,0,0,70.1,24.43" transform="translate(1217.612 3077.212)" fill="#004d54"/>
      <path id="Path_471" data-name="Path 471" d="M84.06,24.43a3.387,3.387,0,1,0,3.387,3.387A3.386,3.386,0,0,0,84.06,24.43" transform="translate(1217.612 3077.212)" fill="#004d54"/>
      <path id="Path_472" data-name="Path 472" d="M56.144,35.476a3.387,3.387,0,1,0,3.387,3.387,3.386,3.386,0,0,0-3.387-3.387" transform="translate(1217.612 3077.212)" fill="#004d54"/>
      <path id="Path_473" data-name="Path 473" d="M70.1,35.476a3.387,3.387,0,1,0,3.387,3.387A3.386,3.386,0,0,0,70.1,35.476" transform="translate(1217.612 3077.212)" fill="#004d54"/>
      <path id="Path_474" data-name="Path 474" d="M84.06,35.476a3.387,3.387,0,1,0,3.387,3.387,3.386,3.386,0,0,0-3.387-3.387" transform="translate(1217.612 3077.212)" fill="#004d54"/>
      <path id="Path_475" data-name="Path 475" d="M42.876,14.287a2.484,2.484,0,1,0,2.484,2.484,2.484,2.484,0,0,0-2.484-2.484" transform="translate(1217.612 3077.212)" fill="#004d54"/>
      <path id="Path_476" data-name="Path 476" d="M42.876,36.38a2.484,2.484,0,1,0,2.484,2.484,2.484,2.484,0,0,0-2.484-2.484" transform="translate(1217.612 3077.212)" fill="#004d54"/>
      <path id="Path_477" data-name="Path 477" d="M42.876,47.426A2.484,2.484,0,1,0,45.36,49.91a2.484,2.484,0,0,0-2.484-2.484" transform="translate(1217.612 3077.212)" fill="#004d54"/>
      <path id="Path_478" data-name="Path 478" d="M42.876,25.334a2.484,2.484,0,0,0-2.484,2.484c0,.015.005.03.005.046s-.005.03-.005.045a2.484,2.484,0,0,0,4.968,0c0-.015-.005-.03-.005-.045s.005-.031.005-.046a2.484,2.484,0,0,0-2.484-2.484" transform="translate(1217.612 3077.212)" fill="#004d54"/>
      <path id="Path_479" data-name="Path 479" d="M86.29,12.165H68.472a2.349,2.349,0,0,0,0,4.7H86.29a2.349,2.349,0,0,0,0-4.7" transform="translate(1217.612 3077.212)" fill="#004d54"/>
    </g>
  </g>
</svg>
