<svg xmlns="http://www.w3.org/2000/svg" width="116" height="112" viewBox="0 0 116 112">
  <g id="Group_561" data-name="Group 561" transform="translate(-684 -2018)">
    <rect id="Rectangle_383" data-name="Rectangle 383" width="116" height="112" transform="translate(684 2018)" fill="none"/>
    <g id="Group_547" data-name="Group 547" transform="translate(-216.909 -1126.75)">
      <path id="Path_496" data-name="Path 496" d="M25.638,12.557a27.149,27.149,0,0,1-6.572.859c-4.367.224-8.884.456-12.6,4.173C-2.7,26.755-1,67.111,4.625,89.844l2.912-.721a182.712,182.712,0,0,1-4.575-40.2C2.925,33.97,4.975,23.322,8.587,19.71c2.9-2.9,6.657-3.093,10.633-3.3a29.8,29.8,0,0,0,7.3-.987c6.056-1.86,7.636-13.723,7.8-15.07L31.336,0c-.52,4.338-2.527,11.583-5.7,12.557" transform="translate(918.909 3155.75)" fill="#004d54"/>
      <path id="Path_497" data-name="Path 497" d="M10.886,37.787c.047.2,4.737,20.13,4.757,25.2.021,5.09-3.885,24.68-3.924,24.878l2.941.588c.164-.818,4.005-20.088,3.983-25.478C18.622,57.565,14,37.931,13.806,37.1Z" transform="translate(918.909 3155.75)" fill="#004d54"/>
      <path id="Path_498" data-name="Path 498" d="M73.984,17.589c-3.716-3.717-8.232-3.948-12.6-4.172a27.149,27.149,0,0,1-6.572-.86c-3.171-.973-5.177-8.219-5.7-12.557L46.136.355c.16,1.347,1.74,13.21,7.795,15.07a29.812,29.812,0,0,0,7.3.988c3.976.2,7.731.4,10.632,3.3,3.612,3.612,5.663,14.26,5.625,29.214a182.644,182.644,0,0,1-4.575,40.2l2.912.721c5.622-22.733,7.326-63.088-1.841-72.255" transform="translate(918.909 3155.75)" fill="#004d54"/>
      <path id="Path_499" data-name="Path 499" d="M66.646,37.1c-.2.833-4.816,20.468-4.838,25.878-.021,5.39,3.82,24.66,3.984,25.477l2.941-.588c-.039-.2-3.945-19.788-3.925-24.877.02-5.07,4.711-25,4.758-25.2Z" transform="translate(918.909 3155.75)" fill="#004d54"/>
      <rect id="Rectangle_371" data-name="Rectangle 371" width="3" height="9.764" transform="translate(957.635 3203.907)" fill="#004d54"/>
      <rect id="Rectangle_372" data-name="Rectangle 372" width="3" height="25.298" transform="translate(957.635 3219.936)" fill="#004d54"/>
      <path id="Path_500" data-name="Path 500" d="M30.219,24.78c-.65-.534-.968-.822-1.1-1.526a2.729,2.729,0,0,1,1.87-2.416l-1.148-2.771c-2.508,1.038-4.087,3.5-3.671,5.735a5.3,5.3,0,0,0,2.143,3.3c.664.545.782.679.782,1.128,0,.69-.243,1.061-1.681,1.9l1.5,2.6c1.188-.689,3.176-1.843,3.176-4.491a4.191,4.191,0,0,0-1.877-3.446" transform="translate(918.909 3155.75)" fill="#004d54"/>
      <path id="Path_501" data-name="Path 501" d="M55.707,37.124a4.2,4.2,0,0,0,1.6-3.583c-.207-2.64-2.28-3.634-3.519-4.228l-1.3,2.706c1.5.719,1.771,1.069,1.825,1.757.035.449-.072.59-.691,1.186a5.3,5.3,0,0,0-1.879,3.453c-.239,2.257,1.527,4.592,4.109,5.431l.928-2.853a2.731,2.731,0,0,1-2.054-2.262,2.355,2.355,0,0,1,.976-1.607" transform="translate(918.909 3155.75)" fill="#004d54"/>
      <path id="Path_502" data-name="Path 502" d="M43.258,22.226a4.194,4.194,0,0,0,1.6-3.583c-.208-2.64-2.281-3.633-3.519-4.227l-1.3,2.706c1.5.718,1.77,1.068,1.824,1.757.035.448-.072.59-.691,1.185A5.291,5.291,0,0,0,39.3,23.518c-.24,2.257,1.527,4.592,4.109,5.431l.927-2.854a2.729,2.729,0,0,1-2.053-2.262,2.353,2.353,0,0,1,.976-1.607" transform="translate(918.909 3155.75)" fill="#004d54"/>
    </g>
  </g>
</svg>
