<svg id="ICON_mail" xmlns="http://www.w3.org/2000/svg" width="24" height="24" viewBox="0 0 24 24">
  <g id="Group_306" data-name="Group 306">
    <path id="Path_100" data-name="Path 100" d="M22,7.535V17a3,3,0,0,1-2.824,3L19,20H5a3,3,0,0,1-2.995-2.824L2,17V7.535l9.445,6.3.116.066a1,1,0,0,0,.878,0l.116-.066Z" fill="#005c65"/>
    <path id="Path_101" data-name="Path 101" d="M19,4a3,3,0,0,1,2.555,1.427L12,11.8,2.445,5.427A3,3,0,0,1,4.8,4.007L5,4Z" fill="#005c65"/>
  </g>
  <rect id="Rectangle_85" data-name="Rectangle 85" width="24" height="24" fill="none"/>
</svg>
