<svg id="ICON_insta" xmlns="http://www.w3.org/2000/svg" width="24" height="24" viewBox="0 0 24 24">
  <rect id="Rectangle_86" data-name="Rectangle 86" width="24" height="24" fill="none"/>
  <path id="mdi_instagram" d="M7.8,2h8.4A5.8,5.8,0,0,1,22,7.8v8.4A5.8,5.8,0,0,1,16.2,22H7.8A5.8,5.8,0,0,1,2,16.2V7.8A5.8,5.8,0,0,1,7.8,2ZM7.6,4A3.6,3.6,0,0,0,4,7.6v8.8A3.6,3.6,0,0,0,7.6,20h8.8A3.6,3.6,0,0,0,20,16.4V7.6A3.6,3.6,0,0,0,16.4,4Zm9.65,1.5a1.25,1.25,0,1,1-.884.366A1.25,1.25,0,0,1,17.25,5.5ZM12,7A5,5,0,1,1,8.464,8.464,5,5,0,0,1,12,7Zm0,2a3,3,0,1,0,2.121.879A3,3,0,0,0,12,9Z" fill="#005c65"/>
</svg>
