<?xml version="1.0" encoding="UTF-8"?>
<svg id="ICON_insta" data-name="ICON insta" xmlns="http://www.w3.org/2000/svg" viewBox="0 0 24 24">
  <defs>
    <style>
      .cls-1 {
        fill: #009eb0;
      }

      .cls-2 {
        fill: none;
      }
    </style>
  </defs>
  <rect id="Rectangle_86" data-name="Rectangle 86" class="cls-2" width="24" height="24"/>
  <path id="mdi_instagram" data-name="mdi instagram" class="cls-1" d="m7.8,2h8.4c3.2,0,5.8,2.6,5.8,5.8v8.4c0,3.2-2.6,5.8-5.8,5.8H7.8c-3.2,0-5.8-2.6-5.8-5.8V7.8c0-3.2,2.6-5.8,5.8-5.8Zm-.2,2c-1.99,0-3.6,1.61-3.6,3.6h0v8.8c0,1.99,1.61,3.6,3.6,3.6h8.8c1.99,0,3.6-1.61,3.6-3.6h0V7.6c0-1.99-1.61-3.6-3.6-3.6H7.6Zm9.65,1.5c.69,0,1.25.56,1.25,1.25,0,.69-.56,1.25-1.25,1.25-.69,0-1.25-.56-1.25-1.25,0-.33.13-.65.37-.88.23-.23.55-.37.88-.37Zm-5.25,1.5c2.76,0,5,2.24,5,5,0,2.76-2.24,5-5,5s-5-2.24-5-5c0-1.33.53-2.6,1.46-3.54.94-.94,2.21-1.46,3.54-1.46Zm0,2c-1.66,0-3,1.34-3,3,0,1.66,1.34,3,3,3,1.66,0,3-1.34,3-3,0-.8-.32-1.56-.88-2.12-.56-.56-1.33-.88-2.12-.88Z"/>
</svg>