<?xml version="1.0" encoding="UTF-8"?>
<svg id="ICON_tel" data-name="ICON tel" xmlns="http://www.w3.org/2000/svg" viewBox="0 0 24 24">
  <defs>
    <style>
      .cls-1 {
        fill: #009eb0;
      }

      .cls-2 {
        fill: none;
      }
    </style>
  </defs>
  <rect id="Rectangle_87" data-name="Rectangle 87" class="cls-2" width="24" height="24"/>
  <path id="material-symbols_phone-android-rounded" data-name="material-symbols phone-android-rounded" class="cls-1" d="m10.5,20h3c.28,0,.5-.22.5-.5s-.22-.5-.5-.5h-3c-.28,0-.5.22-.5.5s.22.5.5.5Zm-3.5,3c-1.1,0-2-.9-2-2V3c0-.53.21-1.04.59-1.41.37-.38.88-.6,1.41-.59h10c.53,0,1.04.21,1.41.59.38.37.6.88.59,1.41v18c0,1.1-.9,2-2,2H7Zm0-7h10V6H7v10Z"/>
</svg>