<svg xmlns="http://www.w3.org/2000/svg" width="116" height="112" viewBox="0 0 116 112">
  <g id="Group_557" data-name="Group 557" transform="translate(-1270 -1879)">
    <rect id="Rectangle_374" data-name="Rectangle 374" width="116" height="112" transform="translate(1270 1879)" fill="none"/>
    <g id="Group_541" data-name="Group 541" transform="translate(368.926 -970.187)">
      <path id="Path_453" data-name="Path 453" d="M38.061,19.187a9.594,9.594,0,1,0-9.593-9.594,9.6,9.6,0,0,0,9.593,9.594M38.061,3a6.594,6.594,0,1,1-6.593,6.593A6.6,6.6,0,0,1,38.061,3" transform="translate(921.074 2864.187)" fill="#004d54"/>
      <path id="Path_454" data-name="Path 454" d="M22.071,40.184c4.116-7.234,8-14.067,15.989-14.067S49.934,32.95,54.05,40.184c4.612,8.106,9.841,17.3,21.813,13.244l-.96-2.842C65.271,53.844,61.28,46.825,56.657,38.7,52.5,31.4,47.79,23.117,38.06,23.117S23.619,31.4,19.463,38.7c-4.622,8.126-8.614,15.142-18.245,11.886L.257,53.428a17.144,17.144,0,0,0,5.5.988c8.214,0,12.477-7.49,16.313-14.232" transform="translate(921.074 2864.187)" fill="#004d54"/>
      <path id="Path_455" data-name="Path 455" d="M70.739,62.278A18.668,18.668,0,0,0,52.6,62.31l1.436,2.633a15.815,15.815,0,0,1,15.168-.086c2.486,1.476,3.913,3.593,3.913,5.807,0,2.509-2.131,5.019-5.561,6.55-6.2,2.767-16.5,2.377-27.237-6.6,4.542-4.316,11.8-12.483,15.8-19.036l-2.561-1.562c-3.875,6.35-11.218,14.573-15.53,18.635-11.909-10.12-23.6-10.444-30.7-7.277C2.811,63.4,0,66.956,0,70.664,0,74.35,2.778,77.889,7.252,79.9a21.647,21.647,0,0,0,8.855,1.787c6.381,0,14.1-2.436,21.948-9.047,7.8,6.641,15.514,9.086,21.9,9.086a21.72,21.72,0,0,0,8.826-1.772c4.526-2.021,7.338-5.581,7.338-9.29,0-3.3-1.962-6.356-5.382-8.386M8.482,77.164C5.1,75.644,3,73.153,3,70.664c0-2.508,2.13-5.018,5.561-6.549a18.691,18.691,0,0,1,7.609-1.521c5.64,0,12.519,2.167,19.591,8.065C24.94,79.593,14.648,79.937,8.482,77.164" transform="translate(921.074 2864.187)" fill="#004d54"/>
      <path id="Path_456" data-name="Path 456" d="M25.093,58.76,27.446,56.9c-2.019-2.551-3.772-5.173-4.916-6.923l-2.511,1.642c1.175,1.8,2.98,4.5,5.074,7.142" transform="translate(921.074 2864.187)" fill="#004d54"/>
    </g>
  </g>
</svg>
