<!-- <svg id="logo" xmlns="http://www.w3.org/2000/svg" width="220.105" height="48" viewBox="0 0 220.105 48">
  <path id="Path_12" data-name="Path 12" d="M66.144,56.764a2.015,2.015,0,0,1,1-.25,3.885,3.885,0,0,1,.825.072,2.341,2.341,0,0,1,.515.165,2.848,2.848,0,0,1,.276.15l.206-1.331c-.131-.028-.279-.062-.444-.1s-.367-.076-.606-.109a6.648,6.648,0,0,0-.88-.048,3.9,3.9,0,0,0-1.3.217,3.228,3.228,0,0,0-1.1.65,3.1,3.1,0,0,0-.764,1.071,3.634,3.634,0,0,0-.281,1.479,3.565,3.565,0,0,0,.431,1.788A3.02,3.02,0,0,0,65.229,61.7a3.769,3.769,0,0,0,1.83.423,4.647,4.647,0,0,0,.77-.057,4.7,4.7,0,0,0,.6-.137c.174-.053.328-.106.462-.157V60.513a1.741,1.741,0,0,1-.4.191,4.546,4.546,0,0,1-.611.168,3.389,3.389,0,0,1-.676.069,1.906,1.906,0,0,1-1.8-1.107,2.689,2.689,0,0,1-.253-1.2,2.289,2.289,0,0,1,.271-1.15,1.855,1.855,0,0,1,.723-.725" transform="translate(-16.237 -14.123)" fill="#fff"/>
  <path id="Path_13" data-name="Path 13" d="M75.338,59.221H77.6V58.107H75.338V56.553h2.988V55.407H73.841v6.668h4.8V60.894h-3.3Z" transform="translate(-18.855 -14.148)" fill="#fff"/>
  <path id="Path_14" data-name="Path 14" d="M87.595,58.586l.144,1.612-.542-.982-2.782-3.81H83v6.669H84.39V58.958l-.159-1.668.6,1.09,2.658,3.7h1.507V55.407h-1.4Z" transform="translate(-21.192 -14.148)" fill="#fff"/>
  <path id="Path_15" data-name="Path 15" d="M93.636,56.579h2.1v5.5h1.544v-5.5H99.38V55.408H93.636Z" transform="translate(-23.909 -14.148)" fill="#fff"/>
  <path id="Path_16" data-name="Path 16" d="M109.42,61.571a6.663,6.663,0,0,1-.369-.681q-.172-.366-.356-.72a3.594,3.594,0,0,0-.4-.622,1.323,1.323,0,0,0-.286-.258,2.559,2.559,0,0,0,.312-.135,1.652,1.652,0,0,0,.661-.671,2.316,2.316,0,0,0,.235-1.109,2.108,2.108,0,0,0-.214-1,1.665,1.665,0,0,0-.586-.632,2.549,2.549,0,0,0-.846-.329,4.827,4.827,0,0,0-.991-.1q-.693,0-1.192.035t-.873.037h-.583v6.668h1.523V59.6c.372,0,.668-.005.89-.018l.062,0h0a.658.658,0,0,1,.452.194,1.72,1.72,0,0,1,.325.48q.142.3.278.64t.3.678c.065.127.115.225.147.292a.924.924,0,0,0,.121.188h1.7c-.025-.045-.067-.114-.127-.207l-.178-.273m-3.291-3.017c-.133,0-.261,0-.387-.007s-.222-.009-.291-.016V56.482a2.62,2.62,0,0,1,.436-.062c.16-.01.322-.016.487-.016a1.987,1.987,0,0,1,.821.137.819.819,0,0,1,.41.366,1.092,1.092,0,0,1,.117.5,1.224,1.224,0,0,1-.14.586.987.987,0,0,1-.423.41,1.5,1.5,0,0,1-.707.15l-.323,0" transform="translate(-26.537 -14.123)" fill="#fff"/>
  <path id="Path_17" data-name="Path 17" d="M118.413,59.087a2.581,2.581,0,0,1-.3,1.409,1.2,1.2,0,0,1-1.071.439,1.709,1.709,0,0,1-.823-.171.991.991,0,0,1-.455-.573,3.436,3.436,0,0,1-.141-1.1l.01-3.68h-1.517l-.01,3.861a3.775,3.775,0,0,0,.281,1.515,2.08,2.08,0,0,0,.924,1.006,3.547,3.547,0,0,0,1.731.359,3.473,3.473,0,0,0,1.636-.338,2.1,2.1,0,0,0,.937-.975,3.58,3.58,0,0,0,.3-1.541V55.407h-1.507Z" transform="translate(-29.137 -14.148)" fill="#fff"/>
  <path id="Path_18" data-name="Path 18" d="M130.228,55.407l-.986,3.484-.3,1.527-.356-1.527L127.5,55.407h-2.1l-.8,6.668h1.43l.331-3.634.139-1.925.515,1.967,1.275,3.633h1.2l1.2-3.633.486-1.967.119,1.925.381,3.634h1.492l-.913-6.668Z" transform="translate(-31.816 -14.148)" fill="#fff"/>
  <path id="Path_19" data-name="Path 19" d="M141.8,56.579h2.1v5.5h1.544v-5.5h2.105V55.408H141.8Z" transform="translate(-36.207 -14.148)" fill="#fff"/>
  <path id="Path_20" data-name="Path 20" d="M153.586,59.221h2.265V58.107h-2.265V56.553h2.988V55.407h-4.486v6.668h4.8V60.894h-3.3Z" transform="translate(-38.834 -14.148)" fill="#fff"/>
  <path id="Path_21" data-name="Path 21" d="M166.736,61.571a6.66,6.66,0,0,1-.369-.681q-.172-.366-.356-.72a3.594,3.594,0,0,0-.4-.622,1.324,1.324,0,0,0-.286-.258,2.56,2.56,0,0,0,.312-.135,1.652,1.652,0,0,0,.66-.671,2.316,2.316,0,0,0,.235-1.109,2.108,2.108,0,0,0-.214-1,1.665,1.665,0,0,0-.586-.632,2.549,2.549,0,0,0-.846-.329,4.828,4.828,0,0,0-.991-.1q-.693,0-1.192.035t-.873.037h-.583v6.668h1.523V59.6c.372,0,.668-.005.89-.018l.062,0h0a.658.658,0,0,1,.452.194,1.72,1.72,0,0,1,.325.48q.142.3.279.64t.3.678c.065.127.115.225.147.292a.924.924,0,0,0,.121.188h1.7c-.025-.045-.067-.114-.127-.207l-.178-.273m-3.291-3.017c-.133,0-.261,0-.387-.007s-.222-.009-.291-.016V56.482a2.62,2.62,0,0,1,.436-.062c.16-.01.322-.016.487-.016a1.987,1.987,0,0,1,.821.137.819.819,0,0,1,.41.366,1.092,1.092,0,0,1,.117.5,1.224,1.224,0,0,1-.14.586.987.987,0,0,1-.423.41,1.5,1.5,0,0,1-.707.15l-.323,0" transform="translate(-41.172 -14.123)" fill="#fff"/>
  <path id="Path_22" data-name="Path 22" d="M173.133,55.331l-2.643,6.725h1.569l.468-1.337h2.824l.47,1.337h1.585l-2.632-6.725ZM172.9,59.64l.806-2.3.232-.8.221.8.809,2.3Z" transform="translate(-43.533 -14.128)" fill="#fff"/>
  <path id="Path_23" data-name="Path 23" d="M186.059,55.538a4.2,4.2,0,0,0-1.458-.227c-.348,0-.681.011-1,.036s-.643.036-.97.036h-.614v6.668h1.528v-2c.086,0,.2,0,.328,0l.514,0a3.3,3.3,0,0,0,2.183-.635,2.221,2.221,0,0,0,.754-1.8,2.477,2.477,0,0,0-.325-1.35,1.827,1.827,0,0,0-.937-.735m-.441,2.877a1.105,1.105,0,0,1-.535.416,2.066,2.066,0,0,1-.725.124c-.145,0-.284,0-.418-.012s-.267-.016-.4-.024V56.435c.113-.016.238-.029.372-.036s.273-.013.418-.016a1.567,1.567,0,0,1,1.115.31,1.172,1.172,0,0,1,.372.924,1.376,1.376,0,0,1-.2.8" transform="translate(-46.476 -14.123)" fill="#fff"/>
  <rect id="Rectangle_5" data-name="Rectangle 5" width="1.538" height="6.668" transform="translate(142.988 41.259)" fill="#fff"/>
  <rect id="Rectangle_6" data-name="Rectangle 6" width="1.538" height="6.668" transform="translate(147.287 41.259)" fill="#fff"/>
  <rect id="Rectangle_7" data-name="Rectangle 7" width="1.538" height="6.668" transform="translate(154.259 41.259)" fill="#fff"/>
  <path id="Path_24" data-name="Path 24" d="M221.807,61.571a6.661,6.661,0,0,1-.369-.681q-.172-.366-.356-.72a3.6,3.6,0,0,0-.4-.622,1.322,1.322,0,0,0-.286-.258,2.556,2.556,0,0,0,.312-.135,1.652,1.652,0,0,0,.661-.671,2.315,2.315,0,0,0,.235-1.109,2.108,2.108,0,0,0-.214-1,1.665,1.665,0,0,0-.586-.632,2.549,2.549,0,0,0-.846-.329,4.828,4.828,0,0,0-.991-.1q-.693,0-1.192.035t-.873.037h-.583v6.668h1.523V59.6c.372,0,.668-.005.89-.018l.062,0h0a.658.658,0,0,1,.452.194,1.718,1.718,0,0,1,.325.48q.142.3.279.64t.3.678c.065.127.115.225.147.292a.921.921,0,0,0,.121.188h1.7c-.025-.045-.067-.114-.127-.207l-.178-.273m-3.291-3.017c-.133,0-.261,0-.387-.007s-.222-.009-.291-.016V56.482a2.619,2.619,0,0,1,.436-.062c.16-.01.322-.016.487-.016a1.987,1.987,0,0,1,.821.137.819.819,0,0,1,.41.366,1.092,1.092,0,0,1,.117.5,1.224,1.224,0,0,1-.14.586.987.987,0,0,1-.423.41,1.5,1.5,0,0,1-.707.15l-.323,0" transform="translate(-55.234 -14.123)" fill="#fff"/>
  <path id="Path_25" data-name="Path 25" d="M230.8,59.087a2.581,2.581,0,0,1-.3,1.409,1.2,1.2,0,0,1-1.071.439,1.709,1.709,0,0,1-.823-.171.99.99,0,0,1-.455-.573,3.435,3.435,0,0,1-.142-1.1l.01-3.68h-1.517l-.01,3.861a3.776,3.776,0,0,0,.281,1.515,2.08,2.08,0,0,0,.924,1.006,3.547,3.547,0,0,0,1.731.359,3.473,3.473,0,0,0,1.636-.338,2.1,2.1,0,0,0,.937-.975,3.581,3.581,0,0,0,.3-1.541V55.407H230.8Z" transform="translate(-57.834 -14.148)" fill="#fff"/>
  <path id="Path_26" data-name="Path 26" d="M239.35,56.764a2.015,2.015,0,0,1,1-.25,3.885,3.885,0,0,1,.825.072,2.341,2.341,0,0,1,.515.165,2.859,2.859,0,0,1,.276.15l.206-1.331c-.131-.028-.279-.062-.444-.1s-.367-.076-.606-.109a6.649,6.649,0,0,0-.88-.048,3.9,3.9,0,0,0-1.3.217,3.228,3.228,0,0,0-1.1.65,3.1,3.1,0,0,0-.764,1.071,3.634,3.634,0,0,0-.282,1.479,3.565,3.565,0,0,0,.431,1.788,3.02,3.02,0,0,0,1.207,1.185,3.769,3.769,0,0,0,1.83.423,4.646,4.646,0,0,0,.77-.057,4.7,4.7,0,0,0,.6-.137c.174-.053.328-.106.462-.157V60.513a1.741,1.741,0,0,1-.4.191,4.546,4.546,0,0,1-.611.168,3.39,3.39,0,0,1-.676.069,1.906,1.906,0,0,1-1.8-1.107,2.689,2.689,0,0,1-.253-1.2,2.289,2.289,0,0,1,.271-1.15,1.855,1.855,0,0,1,.723-.725" transform="translate(-60.464 -14.123)" fill="#fff"/>
  <path id="Path_27" data-name="Path 27" d="M251.5,58.143h-2.921V55.407h-1.528v6.668h1.528V59.263H251.5v2.813h1.523V55.407H251.5Z" transform="translate(-63.081 -14.148)" fill="#fff"/>
  <path id="Path_28" data-name="Path 28" d="M262.538,59.087a2.581,2.581,0,0,1-.3,1.409,1.2,1.2,0,0,1-1.071.439,1.709,1.709,0,0,1-.823-.171.99.99,0,0,1-.455-.573,3.436,3.436,0,0,1-.142-1.1l.01-3.68h-1.517l-.01,3.861a3.776,3.776,0,0,0,.281,1.515,2.08,2.08,0,0,0,.924,1.006,3.547,3.547,0,0,0,1.731.359,3.473,3.473,0,0,0,1.636-.338,2.1,2.1,0,0,0,.937-.975,3.58,3.58,0,0,0,.3-1.541V55.407h-1.507Z" transform="translate(-65.938 -14.148)" fill="#fff"/>
  <path id="Path_29" data-name="Path 29" d="M63.18,29.717l.558,1.2H78.43V27.8H68.836l1.047-1.187,8.841-12.527-.587-1.215H64.52v3.045h8.6l-.9,1.061Z" transform="translate(-16.132 -3.287)" fill="#fff"/>
  <path id="Path_30" data-name="Path 30" d="M97.991,12.61q-.908,0-1.871.049t-1.815.1q-.852.049-1.411.048H91.162V30.85h1.564q1.09,0,2.346.091t2.612.1a11.322,11.322,0,0,0,5.272-1.1,7.9,7.9,0,0,0,3.428-3.3,10.785,10.785,0,0,0,1.2-5.286,8.692,8.692,0,0,0-2.319-6.46q-2.318-2.3-7.276-2.3m4.679,12.675a4.447,4.447,0,0,1-1.857,2.025,5.755,5.755,0,0,1-2.751.663q-.727,0-1.488-.042a7.2,7.2,0,0,1-1.278-.168V15.781q.378-.056,1.019-.112t1.271-.056a6.057,6.057,0,0,1,4.329,1.362q1.425,1.362,1.425,4.769a8.086,8.086,0,0,1-.67,3.541" transform="translate(-23.277 -3.22)" fill="#fff"/>
  <path id="Path_31" data-name="Path 31" d="M124.989,24.216q1.509,0,2.409-.049c.061,0,.108-.008.167-.011l-.006,0a1.763,1.763,0,0,1,1.222.523,4.647,4.647,0,0,1,.879,1.3q.384.8.755,1.732t.817,1.836c.176.345.31.608.4.789a2.561,2.561,0,0,0,.328.509h4.595q-.1-.181-.342-.558t-.482-.74a18.025,18.025,0,0,1-1-1.843q-.468-.992-.964-1.949a9.707,9.707,0,0,0-1.089-1.682,3.629,3.629,0,0,0-.742-.688,6.734,6.734,0,0,0,.812-.374,4.475,4.475,0,0,0,1.787-1.816,6.254,6.254,0,0,0,.636-3,5.714,5.714,0,0,0-.579-2.716,4.463,4.463,0,0,0-1.585-1.711,6.913,6.913,0,0,0-2.291-.894,13.2,13.2,0,0,0-2.681-.266q-1.872,0-3.226.1t-2.361.1H120.87V30.85h4.119Zm0-8.436a7.222,7.222,0,0,1,1.18-.168c.433-.028.874-.042,1.32-.042a5.394,5.394,0,0,1,2.221.37,2.231,2.231,0,0,1,1.11.992,2.97,2.97,0,0,1,.315,1.362,3.3,3.3,0,0,1-.378,1.585,2.663,2.663,0,0,1-1.145,1.11,4.065,4.065,0,0,1-1.913.405c-.223,0-.515,0-.873-.007s-.707-.011-1.047-.021-.6-.023-.79-.042Z" transform="translate(-30.863 -3.22)" fill="#fff"/>
  <path id="Path_32" data-name="Path 32" d="M163.682,16.814a7,7,0,0,0-2.968-3.142,9.662,9.662,0,0,0-4.832-1.062,10.59,10.59,0,0,0-4.79,1.076,7.362,7.362,0,0,0-3.156,3.086,10.484,10.484,0,0,0-1.145,5,10.829,10.829,0,0,0,1.025,5.035,7.257,7.257,0,0,0,3.052,3.178,9.724,9.724,0,0,0,4.818,1.06,9.934,9.934,0,0,0,4.686-1.1,7.5,7.5,0,0,0,3.086-3.142,11.152,11.152,0,0,0,1.167-5.1,10.585,10.585,0,0,0-.943-4.888M159.248,26.4a4.13,4.13,0,0,1-3.464,1.585,4.509,4.509,0,0,1-2.654-.754A4.665,4.665,0,0,1,151.5,25.11a8.6,8.6,0,0,1-.559-3.254,8.528,8.528,0,0,1,.607-3.457,4.319,4.319,0,0,1,1.718-2.025,5.011,5.011,0,0,1,2.619-.663,4.07,4.07,0,0,1,4.079,2.778,8.861,8.861,0,0,1,.516,3.184,7.641,7.641,0,0,1-1.228,4.728" transform="translate(-37.481 -3.22)" fill="#fff"/>
  <path id="Path_33" data-name="Path 33" d="M188.535,12.873l-3.618,9.692-.964,3.478-1.034-3.478-3.784-9.692h-4.344l7.333,18.1h3.561l7.22-18.1Z" transform="translate(-44.631 -3.287)" fill="#fff"/>
  <rect id="Rectangle_8" data-name="Rectangle 8" width="4.162" height="18.044" transform="translate(153.204 9.587)" fill="#fff"/>
  <path id="Path_34" data-name="Path 34" d="M232.5,23.881a5.107,5.107,0,0,0-1.209-1.488,9.807,9.807,0,0,0-1.76-1.18q-1-.531-2.1-.991-1.312-.586-2.116-1.012a3.745,3.745,0,0,1-1.159-.867,1.627,1.627,0,0,1-.357-1.054,1.144,1.144,0,0,1,.392-.866,2.665,2.665,0,0,1,1.1-.565,6.166,6.166,0,0,1,1.675-.2,9.229,9.229,0,0,1,1.781.161,7.9,7.9,0,0,1,1.452.418,6.769,6.769,0,0,1,1.054.524l.684-3.129a8.977,8.977,0,0,0-1.836-.656,12.847,12.847,0,0,0-3.345-.363,11.769,11.769,0,0,0-2.682.293,7.235,7.235,0,0,0-2.206.887,4.367,4.367,0,0,0-1.488,1.515,4.251,4.251,0,0,0-.538,2.179,4.444,4.444,0,0,0,.678,2.479,6.492,6.492,0,0,0,1.774,1.8,14,14,0,0,0,2.367,1.32q1.48.642,2.395,1.082a4.54,4.54,0,0,1,1.334.887,1.5,1.5,0,0,1,.419,1.062,1.39,1.39,0,0,1-.789,1.313,5.3,5.3,0,0,1-2.4.418,10.616,10.616,0,0,1-1.961-.182,13.912,13.912,0,0,1-1.781-.447,8.991,8.991,0,0,1-1.3-.517l-.657,3.241a5.778,5.778,0,0,0,1.279.474,18.412,18.412,0,0,0,2.136.44,17.259,17.259,0,0,0,2.6.188,9.846,9.846,0,0,0,3.715-.635,5.479,5.479,0,0,0,2.423-1.8,4.569,4.569,0,0,0,.859-2.787,4.072,4.072,0,0,0-.447-1.941" transform="translate(-56.134 -3.22)" fill="#fff"/>
  <path id="Path_35" data-name="Path 35" d="M259.968,29.6q-.558-.907-1.291-2.011t-1.516-2.235q-.782-1.132-1.508-2.171t-1.314-1.844c-.208-.287-.39-.534-.549-.747l6.736-7.724h-4.58l-7.1,7.877V12.873H244.9V30.918h3.952V25.535l2.181-2.149c.241.326.49.663.76,1.023q.593.8,1.221,1.648t1.222,1.718q.593.866,1.111,1.718c.232.391.4.687.5.887a4.437,4.437,0,0,0,.32.538h4.665q-.223-.335-.426-.656t-.44-.657" transform="translate(-62.533 -3.287)" fill="#fff"/>
  <path id="Path_36" data-name="Path 36" d="M288.516,16.814a7,7,0,0,0-2.968-3.142,9.663,9.663,0,0,0-4.832-1.062,10.59,10.59,0,0,0-4.79,1.076,7.362,7.362,0,0,0-3.156,3.086,10.484,10.484,0,0,0-1.145,5,10.829,10.829,0,0,0,1.025,5.035,7.254,7.254,0,0,0,3.052,3.178,9.724,9.724,0,0,0,4.818,1.06,9.934,9.934,0,0,0,4.686-1.1,7.5,7.5,0,0,0,3.086-3.142,11.153,11.153,0,0,0,1.167-5.1,10.585,10.585,0,0,0-.943-4.888M284.081,26.4a4.127,4.127,0,0,1-3.463,1.585,4.51,4.51,0,0,1-2.654-.754,4.665,4.665,0,0,1-1.634-2.122,8.6,8.6,0,0,1-.558-3.254,8.516,8.516,0,0,1,.607-3.457,4.319,4.319,0,0,1,1.718-2.025,5.01,5.01,0,0,1,2.619-.663,4.07,4.07,0,0,1,4.079,2.778,8.862,8.862,0,0,1,.516,3.184,7.636,7.636,0,0,1-1.229,4.728" transform="translate(-69.356 -3.22)" fill="#fff"/>
  <path id="Path_37" data-name="Path 37" d="M35.674,24.879a1.677,1.677,0,0,1-1.082-.853c-2.188-3.413-.949-13.967.346-19.818L31.565,3.083C25.392,16.694,17.645,27.638,15,26.514c-2.343-1,.062-12.58,5.047-24.3L17.453,0,0,11.016l1.908,3.023,13.1-8.475c-.78,2.142-1.909,5.114-2.67,7.808-1.722,6.091-3.463,14.42,1.267,16.431a4.376,4.376,0,0,0,1.734.36c3.411,0,7.426-3.943,12.406-12.2a50.961,50.961,0,0,0,2.672-5.2A33.981,33.981,0,0,0,30,19.854a13.384,13.384,0,0,0,1.585,6.1,5.27,5.27,0,0,0,3.336,2.419c5.4,1.163,10.233-7.773,11.72-11.679H42.774c-1.868,4.175-5.279,8.577-7.1,8.186" fill="#fff"/>
</svg> -->
<svg id="logo" xmlns="http://www.w3.org/2000/svg" xmlns:xlink="http://www.w3.org/1999/xlink" xmlns:serif="http://www.serif.com/" viewBox="0 0 922 204" version="1.1" xml:space="preserve" style="fill-rule:evenodd;clip-rule:evenodd;stroke-linejoin:round;stroke-miterlimit:2;">
    <g transform="matrix(1,0,0,1,-139.21,-472.71)">
        <path d="M336.2,583.37L338.54,588.4L400.06,588.4L400.06,575.36L359.88,575.36L364.27,570.39L401.28,517.94L398.83,512.85L341.81,512.85L341.81,525.6L377.84,525.6L374.09,530.04L336.2,583.37Z" style="fill:#fff;fill-rule:nonzero;"/>
    </g>
    <g transform="matrix(1,0,0,1,-139.21,-472.71)">
        <path d="M452.04,512.03C449.51,512.03 446.89,512.1 444.21,512.23C441.52,512.37 438.99,512.5 436.61,512.64C434.23,512.78 432.26,512.84 430.7,512.84L423.45,512.84L423.45,588.39L430,588.39C433.04,588.39 436.31,588.52 439.82,588.77C443.33,589.02 446.97,589.17 450.76,589.21C459.26,589.29 466.61,587.76 472.83,584.62C479.05,581.48 483.83,576.88 487.19,570.82C490.54,564.76 492.22,557.38 492.22,548.69C492.22,537.07 488.98,528.06 482.51,521.64C476.04,515.23 465.88,512.02 452.04,512.02L452.04,512.03ZM471.63,565.1C469.76,568.94 467.17,571.76 463.85,573.58C460.53,575.39 456.69,576.32 452.33,576.36C450.3,576.36 448.23,576.3 446.1,576.18C443.97,576.06 442.19,575.83 440.75,575.48L440.75,525.31C441.8,525.15 443.23,525 445.02,524.84C446.81,524.68 448.59,524.61 450.34,524.61C458.45,524.61 464.49,526.51 468.47,530.31C472.45,534.11 474.43,540.77 474.43,550.28C474.43,556.32 473.5,561.27 471.62,565.1L471.63,565.1Z" style="fill:#fff;fill-rule:nonzero;"/>
    </g>
    <g transform="matrix(1,0,0,1,-139.21,-472.71)">
        <path d="M533.32,560.62C537.53,560.62 540.9,560.55 543.41,560.41C543.66,560.4 543.86,560.38 544.11,560.36L544.09,560.38C546.12,560.46 547.82,561.19 549.21,562.57C550.6,563.95 551.82,565.77 552.89,568.01C553.96,570.25 555.02,572.67 556.05,575.26C557.08,577.85 558.22,580.41 559.47,582.95C560.21,584.39 560.77,585.5 561.14,586.25C561.51,587.01 561.97,587.72 562.52,588.38L581.76,588.38C581.49,587.87 581.01,587.1 580.33,586.04C579.65,584.99 578.98,583.95 578.31,582.94C576.83,580.56 575.44,577.99 574.13,575.22C572.82,572.45 571.48,569.73 570.1,567.06C568.71,564.39 567.2,562.04 565.54,560.01C564.59,558.85 563.55,557.91 562.43,557.13C563.61,556.66 564.76,556.16 565.83,555.56C569.05,553.77 571.54,551.23 573.31,547.96C575.09,544.69 575.97,540.5 575.97,535.39C575.97,530.83 575.16,527.04 573.54,524.02C571.92,521 569.71,518.61 566.9,516.86C564.09,515.11 560.9,513.86 557.31,513.12C553.72,512.38 549.98,512.01 546.08,512.01C540.86,512.01 536.35,512.15 532.57,512.42C528.79,512.69 525.49,512.83 522.69,512.83L516.08,512.83L516.08,588.38L533.33,588.38L533.33,560.61L533.32,560.62ZM533.32,525.31C534.8,524.96 536.45,524.73 538.26,524.61C540.07,524.49 541.92,524.43 543.79,524.43C547.77,524.43 550.87,524.95 553.09,525.98C555.31,527.02 556.86,528.4 557.74,530.13C558.62,531.87 559.06,533.77 559.06,535.83C559.06,538.28 558.53,540.5 557.48,542.46C556.43,544.43 554.83,545.98 552.68,547.11C550.54,548.24 547.87,548.81 544.67,548.81C543.74,548.81 542.51,548.81 541.02,548.78C539.52,548.76 538.06,548.73 536.64,548.69C535.22,548.65 534.11,548.59 533.33,548.51L533.33,525.3L533.32,525.31Z" style="fill:#fff;fill-rule:nonzero;"/>
    </g>
    <g transform="matrix(1,0,0,1,-139.21,-472.71)">
        <path d="M667.61,529.63C664.82,523.9 660.68,519.51 655.18,516.47C649.68,513.43 642.94,511.95 634.95,512.02C627.27,512.1 620.58,513.6 614.89,516.52C609.2,519.44 604.79,523.75 601.68,529.44C598.56,535.13 596.96,542.11 596.88,550.38C596.8,558.6 598.23,565.63 601.18,571.46C604.12,577.29 608.38,581.72 613.96,584.77C619.53,587.81 626.26,589.29 634.13,589.21C641.69,589.13 648.23,587.6 653.75,584.62C659.27,581.64 663.57,577.25 666.67,571.46C669.77,565.67 671.4,558.55 671.55,550.09C671.71,542.18 670.39,535.35 667.6,529.62L667.61,529.63ZM649.04,569.77C645.61,574.2 640.78,576.41 634.54,576.41C630.13,576.41 626.43,575.36 623.43,573.25C620.43,571.14 618.15,568.18 616.59,564.36C615.03,560.54 614.25,556 614.25,550.73C614.25,544.88 615.1,540.06 616.79,536.26C618.49,532.46 620.88,529.63 623.98,527.78C627.08,525.93 630.74,525 634.95,525C639.16,525 642.7,526 645.56,528.01C648.43,530.02 650.58,532.89 652.02,536.63C653.46,540.38 654.18,544.82 654.18,549.96C654.18,558.73 652.46,565.33 649.03,569.75L649.04,569.77Z" style="fill:#fff;fill-rule:nonzero;"/>
    </g>
    <g transform="matrix(1,0,0,1,-139.21,-472.71)">
        <path d="M741.73,512.85L726.58,553.43L722.55,567.99L718.22,553.43L702.38,512.85L684.19,512.85L714.89,588.63L729.8,588.63L760.03,512.85L741.73,512.85Z" style="fill:#fff;fill-rule:nonzero;"/>
    </g>
    <g transform="matrix(1,0,0,1,-139.21,-472.71)">
        <rect x="780.67" y="512.85" width="17.43" height="75.55" style="fill:#fff;"/>
    </g>
    <g transform="matrix(1,0,0,1,-139.21,-472.71)">
        <path d="M877.63,559.22C876.38,556.88 874.69,554.81 872.57,552.99C870.44,551.18 867.99,549.53 865.2,548.05C862.41,546.57 859.48,545.18 856.4,543.9C852.73,542.26 849.78,540.85 847.54,539.66C845.3,538.47 843.68,537.26 842.69,536.03C841.7,534.8 841.2,533.33 841.2,531.62C841.2,530.22 841.75,529.01 842.84,527.99C843.93,526.98 845.47,526.19 847.46,525.62C849.45,525.06 851.78,524.77 854.48,524.77C857.18,524.77 859.66,525 861.94,525.44C864.22,525.88 866.25,526.47 868.02,527.19C869.79,527.91 871.27,528.64 872.43,529.38L875.3,516.28C873.86,515.46 871.3,514.54 867.61,513.53C863.93,512.52 859.26,512.01 853.6,512.01C849.62,512.01 845.88,512.42 842.37,513.24C838.86,514.06 835.78,515.3 833.13,516.95C830.48,518.61 828.4,520.72 826.9,523.3C825.4,525.88 824.65,528.91 824.65,532.42C824.65,536.44 825.6,539.89 827.49,542.8C829.38,545.71 831.85,548.22 834.92,550.34C837.98,552.47 841.28,554.31 844.83,555.87C848.96,557.66 852.3,559.17 854.86,560.4C857.41,561.63 859.27,562.87 860.44,564.11C861.61,565.35 862.19,566.84 862.19,568.56C862.19,571.05 861.09,572.89 858.89,574.06C856.69,575.23 853.34,575.81 848.86,575.81C846.09,575.81 843.36,575.56 840.65,575.05C837.94,574.54 835.46,573.92 833.19,573.18C830.92,572.44 829.12,571.72 827.75,571.02L825,584.59C826.05,585.21 827.84,585.87 830.35,586.58C832.86,587.28 835.85,587.9 839.3,588.42C842.75,588.94 846.39,589.21 850.21,589.21C856.21,589.21 861.4,588.32 865.77,586.55C870.13,584.78 873.52,582.26 875.92,579.01C878.32,575.76 879.52,571.87 879.52,567.34C879.52,564.26 878.9,561.55 877.65,559.21L877.63,559.22Z" style="fill:#fff;fill-rule:nonzero;"/>
    </g>
    <g transform="matrix(1,0,0,1,-139.21,-472.71)">
        <path d="M965.86,582.9C964.3,580.37 962.5,577.56 960.45,574.48C958.4,571.4 956.29,568.28 954.1,565.12C951.92,561.96 949.81,558.93 947.79,556.03C945.77,553.13 943.93,550.55 942.29,548.31C941.41,547.11 940.65,546.08 939.99,545.18L968.2,512.84L949.02,512.84L919.32,545.82L919.32,512.84L902.77,512.84L902.77,588.39L919.32,588.39L919.32,565.86L928.45,556.86C929.46,558.22 930.5,559.63 931.63,561.14C933.29,563.36 934.99,565.66 936.75,568.04C938.5,570.42 940.21,572.81 941.87,575.23C943.53,577.65 945.08,580.04 946.52,582.42C947.49,584.06 948.19,585.3 948.62,586.13C949.05,586.96 949.5,587.72 949.96,588.38L969.49,588.38C968.87,587.45 968.27,586.53 967.71,585.63C967.15,584.73 966.53,583.82 965.87,582.88L965.86,582.9Z" style="fill:#fff;fill-rule:nonzero;"/>
    </g>
    <g transform="matrix(1,0,0,1,-139.21,-472.71)">
        <path d="M1056.82,529.63C1054.03,523.9 1049.89,519.51 1044.39,516.47C1038.89,513.43 1032.15,511.95 1024.16,512.02C1016.48,512.1 1009.79,513.6 1004.1,516.52C998.41,519.44 994,523.75 990.89,529.44C987.77,535.13 986.17,542.11 986.09,550.38C986.01,558.6 987.44,565.63 990.39,571.46C993.33,577.29 997.59,581.72 1003.17,584.77C1008.74,587.81 1015.47,589.29 1023.34,589.21C1030.9,589.13 1037.44,587.6 1042.96,584.62C1048.48,581.64 1052.78,577.25 1055.88,571.46C1058.98,565.67 1060.61,558.55 1060.76,550.09C1060.92,542.18 1059.6,535.35 1056.81,529.62L1056.82,529.63ZM1038.26,569.77C1034.83,574.2 1030,576.41 1023.76,576.41C1019.35,576.41 1015.65,575.36 1012.65,573.25C1009.65,571.14 1007.37,568.18 1005.81,564.36C1004.25,560.54 1003.47,556 1003.47,550.73C1003.47,544.88 1004.32,540.06 1006.01,536.26C1007.71,532.46 1010.1,529.63 1013.2,527.78C1016.3,525.93 1019.96,525 1024.17,525C1028.38,525 1031.92,526 1034.78,528.01C1037.65,530.02 1039.8,532.89 1041.24,536.63C1042.68,540.38 1043.4,544.82 1043.4,549.96C1043.4,558.73 1041.68,565.33 1038.25,569.75L1038.26,569.77Z" style="fill:#fff;fill-rule:nonzero;"/>
    </g>
    <g transform="matrix(1,0,0,1,-139.21,-472.71)">
        <path d="M288.58,576.88C287.46,576.64 285.78,576 284.05,573.31C274.89,559.02 280.08,514.83 285.5,490.33L271.38,485.62C245.53,542.61 213.1,588.43 202.04,583.72C192.23,579.55 202.3,531.05 223.17,481.97L212.29,472.71L139.21,518.83L147.2,531.49L202.06,496C198.79,504.97 194.07,517.41 190.88,528.69C183.67,554.19 176.38,589.06 196.18,597.49C198.53,598.49 200.95,598.99 203.44,598.99C217.72,598.99 234.53,582.48 255.38,547.93C258.9,542.1 263.68,532.8 266.57,526.17C265.21,535.25 264.17,545.38 264.81,555.84C265.44,566.14 267.66,575.48 271.44,581.38C274.9,586.78 279.73,590.28 285.41,591.51C308.02,596.38 328.25,558.96 334.48,542.61L318.3,542.61C310.48,560.09 296.2,578.52 288.57,576.88L288.58,576.88Z" style="fill:#fff;fill-rule:nonzero;"/>
    </g>
    <g transform="matrix(1,0,0,1,-139.21,-472.71)">
        <path d="M202.09,670.87L202.09,645.5L218.94,645.5L218.94,649.76L207.77,649.76L207.77,656.34L216.17,656.34L216.17,660.58L207.77,660.58L207.77,670.87L202.09,670.87Z" style="fill:#fff;fill-rule:nonzero;"/>
    </g>
    <g transform="matrix(1,0,0,1,-139.21,-472.71)">
        <rect x="224.5" y="645.5" width="5.71" height="25.37" style="fill:#fff;fill-rule:nonzero;"/>
    </g>
    <g transform="matrix(1,0,0,1,-139.21,-472.71)">
        <path d="M236.92,670.87L236.13,669.18L248.99,651.16L250.25,649.69L238.06,649.69L238.06,645.51L257.1,645.51L257.92,647.22L245.38,664.95L243.91,666.6L257.52,666.6L257.52,670.88L236.93,670.88L236.92,670.87Z" style="fill:#fff;fill-rule:nonzero;"/>
    </g>
    <g transform="matrix(1,0,0,1,-139.21,-472.71)">
        <path d="M261.19,676.41L259.8,673.5C260.76,673.19 261.69,672.7 262.61,672.03C263.53,671.36 264.17,670.41 264.53,669.16C264.74,668.48 264.88,667.72 264.96,666.89C265.04,666.06 265.09,665.13 265.11,664.11C265.13,663.09 265.14,661.96 265.14,660.73L265.14,645.49L270.85,645.49L270.85,660.65C270.85,662.15 270.85,663.67 270.88,665.19C270.91,666.71 270.77,668.09 270.5,669.33C270.26,670.52 269.8,671.56 269.11,672.44C268.42,673.32 267.6,674.06 266.67,674.65C265.74,675.24 264.79,675.68 263.82,675.97C262.85,676.26 261.97,676.4 261.19,676.4L261.19,676.41Z" style="fill:#fff;fill-rule:nonzero;"/>
    </g>
    <g transform="matrix(1,0,0,1,-139.21,-472.71)">
        <path d="M290.07,671.15C287.43,671.18 285.17,670.68 283.31,669.66C281.44,668.64 280.02,667.15 279.03,665.19C278.04,663.23 277.55,660.87 277.57,658.11C277.6,655.35 278.13,653.02 279.18,651.11C280.23,649.2 281.7,647.76 283.61,646.76C285.51,645.77 287.76,645.26 290.35,645.23C293.02,645.2 295.28,645.7 297.12,646.72C298.97,647.74 300.36,649.21 301.29,651.14C302.22,653.07 302.67,655.35 302.62,658.01C302.57,660.82 302.02,663.21 300.99,665.16C299.96,667.11 298.51,668.59 296.65,669.6C294.79,670.61 292.6,671.12 290.07,671.15ZM290.21,666.93C292.33,666.93 293.98,666.17 295.15,664.66C296.32,663.15 296.91,660.92 296.91,657.98C296.91,656.24 296.67,654.73 296.17,653.45C295.68,652.17 294.94,651.2 293.96,650.51C292.98,649.82 291.77,649.49 290.33,649.49C288.89,649.49 287.64,649.81 286.59,650.45C285.54,651.09 284.72,652.06 284.15,653.35C283.57,654.64 283.29,656.27 283.29,658.23C283.29,660.01 283.56,661.55 284.08,662.84C284.61,664.14 285.39,665.14 286.43,665.85C287.46,666.56 288.73,666.92 290.22,666.92L290.21,666.93Z" style="fill:#fff;fill-rule:nonzero;"/>
    </g>
    <g transform="matrix(1,0,0,1,-139.21,-472.71)">
        <path d="M313.92,670.87L313.92,649.86L305.89,649.86L305.89,645.5L327.74,645.5L327.74,649.86L319.65,649.86L319.65,670.87L313.92,670.87Z" style="fill:#fff;fill-rule:nonzero;"/>
    </g>
    <g transform="matrix(1,0,0,1,-139.21,-472.71)">
        <path d="M333.14,670.87L333.14,645.5L350.12,645.5L350.12,649.76L338.69,649.76L338.69,655.81L347.35,655.81L347.35,659.97L338.69,659.97L338.69,666.47L351.31,666.47L351.31,670.87L333.13,670.87L333.14,670.87Z" style="fill:#fff;fill-rule:nonzero;"/>
    </g>
    <g transform="matrix(1,0,0,1,-139.21,-472.71)">
        <path d="M362.75,670.87L357.1,670.87L357.1,645.5L359.28,645.5C360.22,645.5 361.32,645.46 362.59,645.36C363.85,645.27 365.35,645.22 367.08,645.22C368.4,645.22 369.66,645.34 370.86,645.59C372.06,645.84 373.12,646.26 374.06,646.85C375,647.44 375.73,648.24 376.27,649.24C376.81,650.25 377.07,651.51 377.07,653.03C377.07,654.72 376.78,656.11 376.19,657.21C375.6,658.31 374.77,659.16 373.69,659.77C372.61,660.38 371.35,660.79 369.91,661C369.37,661.08 368.82,661.15 368.26,661.22C367.7,661.29 366.99,661.34 366.14,661.39C365.29,661.44 364.16,661.46 362.76,661.46L362.76,670.86L362.75,670.87ZM362.75,657.48C363.01,657.51 363.38,657.53 363.87,657.54C364.35,657.55 364.85,657.56 365.36,657.56L366.6,657.56C367.69,657.56 368.6,657.37 369.33,657C370.06,656.63 370.61,656.11 370.97,655.44C371.33,654.77 371.51,654.02 371.51,653.18C371.51,652.46 371.36,651.81 371.06,651.23C370.76,650.65 370.23,650.18 369.48,649.83C368.73,649.48 367.67,649.3 366.31,649.3C365.68,649.3 365.06,649.32 364.43,649.37C363.81,649.42 363.25,649.5 362.75,649.62L362.75,657.49L362.75,657.48ZM372.7,670.87C372.5,670.65 372.34,670.41 372.22,670.15C372.1,669.9 371.92,669.52 371.68,669.02C371.25,668.18 370.86,667.33 370.51,666.45C370.16,665.57 369.81,664.75 369.44,664C369.07,663.24 368.65,662.62 368.17,662.13C367.69,661.65 367.11,661.39 366.41,661.36L368.06,660.18L371.59,659.83C372.32,660.12 372.97,660.61 373.52,661.3C374.08,661.99 374.59,662.79 375.06,663.69C375.53,664.59 375.99,665.5 376.43,666.44C376.88,667.38 377.34,668.24 377.82,669.04C378.04,669.38 378.27,669.73 378.51,670.09C378.74,670.45 378.9,670.71 378.98,670.87L372.68,670.87L372.7,670.87Z" style="fill:#fff;fill-rule:nonzero;"/>
    </g>
    <g transform="matrix(1,0,0,1,-139.21,-472.71)">
        <path d="M387.09,670.87L381.25,670.87L391.34,645.29L397.41,645.29L407.46,670.87L401.55,670.87L395.19,652.85L394.35,649.85L393.49,652.85L387.09,670.87ZM386.8,665.71L387.59,661.68L400.45,661.68L401.22,665.71L386.8,665.71Z" style="fill:#fff;fill-rule:nonzero;"/>
    </g>
    <g transform="matrix(1,0,0,1,-139.21,-472.71)">
        <path d="M411.89,670.87L411.89,645.5L414.17,645.5C415.41,645.5 416.64,645.46 417.85,645.36C419.06,645.27 420.32,645.22 421.63,645.22C423.78,645.22 425.62,645.51 427.16,646.08C428.7,646.66 429.88,647.59 430.7,648.88C431.52,650.17 431.94,651.87 431.94,653.97C431.94,656.92 430.99,659.19 429.08,660.8C427.18,662.41 424.41,663.21 420.79,663.21C419.99,663.21 419.34,663.21 418.83,663.19C418.32,663.18 417.9,663.17 417.57,663.17L417.57,670.85L411.9,670.85L411.89,670.87ZM417.57,658.97C418.07,659 418.57,659.03 419.09,659.06C419.61,659.09 420.14,659.11 420.69,659.11C421.7,659.11 422.63,658.95 423.49,658.64C424.35,658.33 425.04,657.8 425.56,657.05C426.08,656.3 426.35,655.28 426.35,653.97C426.35,652.44 425.87,651.25 424.91,650.42C423.95,649.58 422.52,649.19 420.62,649.24C420.07,649.25 419.53,649.27 419.01,649.3C418.49,649.33 418.01,649.37 417.58,649.44L417.58,658.98L417.57,658.97Z" style="fill:#fff;fill-rule:nonzero;"/>
    </g>
    <g transform="matrix(1,0,0,1,-139.21,-472.71)">
        <rect x="438.14" y="645.5" width="5.71" height="25.37" style="fill:#fff;fill-rule:nonzero;"/>
    </g>
    <g transform="matrix(1,0,0,1,-139.21,-472.71)">
        <path d="M454.68,670.87L448.84,670.87L458.93,645.29L465,645.29L475.05,670.87L469.14,670.87L462.78,652.85L461.94,649.85L461.08,652.85L454.68,670.87ZM454.4,665.71L455.19,661.68L468.05,661.68L468.82,665.71L454.4,665.71Z" style="fill:#fff;fill-rule:nonzero;"/>
    </g>
    <g transform="matrix(1,0,0,1,-139.21,-472.71)">
        <rect x="488.24" y="645.5" width="5.71" height="25.37" style="fill:#fff;fill-rule:nonzero;"/>
    </g>
    <g transform="matrix(1,0,0,1,-139.21,-472.71)">
        <path d="M508.86,670.87L511.92,645.5L519.73,645.5L523.89,658.81L525.27,664.6L526.45,658.81L530.28,645.5L537.8,645.5L541.27,670.87L535.71,670.87L534.24,656.95L533.77,649.63L531.92,657.09L527.29,671.03L522.91,671.03L517.96,657.09L516,649.63L515.47,656.95L514.19,670.87L508.85,670.87L508.86,670.87Z" style="fill:#fff;fill-rule:nonzero;"/>
    </g>
    <g transform="matrix(1,0,0,1,-139.21,-472.71)">
        <path d="M547.4,670.87L547.4,645.5L564.38,645.5L564.38,649.76L552.95,649.76L552.95,655.81L561.61,655.81L561.61,659.97L552.95,659.97L552.95,666.47L565.57,666.47L565.57,670.87L547.39,670.87L547.4,670.87Z" style="fill:#fff;fill-rule:nonzero;"/>
    </g>
    <g transform="matrix(1,0,0,1,-139.21,-472.71)">
        <path d="M571.35,670.87L571.35,645.5L573.74,645.5C574.28,645.5 574.94,645.48 575.72,645.43C576.51,645.38 577.35,645.34 578.24,645.29C579.13,645.24 580.01,645.22 580.86,645.22C585.49,645.22 588.9,646.3 591.08,648.45C593.26,650.6 594.35,653.62 594.35,657.51C594.35,660.44 593.78,662.93 592.65,664.96C591.52,666.99 589.91,668.54 587.82,669.59C585.73,670.64 583.27,671.16 580.43,671.13C579.17,671.12 577.96,671.07 576.78,670.98C575.6,670.89 574.51,670.85 573.5,670.85L571.34,670.85L571.35,670.87ZM577.02,666.63C577.52,666.74 578.13,666.81 578.87,666.86C579.6,666.91 580.3,666.93 580.97,666.93C582.46,666.92 583.77,666.6 584.9,665.98C586.02,665.36 586.9,664.4 587.54,663.1C588.17,661.8 588.49,660.13 588.49,658.07C588.49,654.85 587.81,652.59 586.46,651.3C585.1,650 583.05,649.36 580.29,649.36C579.67,649.36 579.07,649.39 578.46,649.45C577.86,649.51 577.38,649.56 577.03,649.6L577.03,666.64L577.02,666.63Z" style="fill:#fff;fill-rule:nonzero;"/>
    </g>
    <g transform="matrix(1,0,0,1,-139.21,-472.71)">
        <path d="M606.18,670.87L606.18,660.56L606.83,662.84L596.95,645.5L603.14,645.5L608.24,654.49L609.65,658L608.85,658L610.05,654.49L615.16,645.5L621.17,645.5L611.31,662.88L611.98,660.58L611.98,670.87L606.18,670.87Z" style="fill:#fff;fill-rule:nonzero;"/>
    </g>
    <g transform="matrix(1,0,0,1,-139.21,-472.71)">
        <path d="M622.43,658.23C622.43,656.11 622.79,654.24 623.5,652.61C624.21,650.98 625.18,649.63 626.41,648.53C627.63,647.43 629.02,646.61 630.58,646.06C632.14,645.51 633.77,645.24 635.47,645.24C636.8,645.24 637.93,645.3 638.84,645.43C639.75,645.55 640.52,645.69 641.15,645.84C641.78,645.99 642.33,646.12 642.82,646.22L642.05,651.17C641.83,651.03 641.48,650.84 641,650.61C640.52,650.38 639.87,650.18 639.04,649.99C638.21,649.81 637.15,649.72 635.87,649.72C634.47,649.72 633.19,650.04 632.04,650.69C630.89,651.34 629.96,652.27 629.27,653.49C628.58,654.71 628.23,656.18 628.23,657.91C628.23,659.64 628.55,661.19 629.2,662.51C629.85,663.84 630.76,664.88 631.93,665.63C633.1,666.38 634.49,666.76 636.08,666.76C636.93,666.76 637.79,666.68 638.66,666.51C639.53,666.34 640.31,666.13 641.01,665.87C641.7,665.62 642.21,665.37 642.52,665.13L642.52,669.82C642.01,670.02 641.43,670.22 640.77,670.42C640.11,670.62 639.36,670.8 638.51,670.94C637.66,671.08 636.68,671.16 635.56,671.16C632.92,671.16 630.61,670.62 628.65,669.55C626.69,668.48 625.16,666.97 624.06,665.04C622.97,663.11 622.42,660.84 622.42,658.24L622.43,658.23Z" style="fill:#fff;fill-rule:nonzero;"/>
    </g>
    <g transform="matrix(1,0,0,1,-139.21,-472.71)">
        <path d="M655.28,670.87L655.28,660.56L655.93,662.84L646.05,645.5L652.24,645.5L657.34,654.49L658.75,658L657.95,658L659.15,654.49L664.26,645.5L670.27,645.5L660.41,662.88L661.08,660.58L661.08,670.87L655.28,670.87Z" style="fill:#fff;fill-rule:nonzero;"/>
    </g>
    <g transform="matrix(1,0,0,1,-139.21,-472.71)">
        <path d="M674.24,670.88L674.24,645.5L679.5,645.5L690.2,660.13L693.83,666.67L692.52,666.67L691.75,657.84L691.75,645.51L696.95,645.51L696.95,670.88L691.36,670.88L681.13,656.71L676.93,649.09L678.52,649.09L679.42,658.79L679.42,670.88L674.24,670.88Z" style="fill:#fff;fill-rule:nonzero;"/>
    </g>
    <g transform="matrix(1,0,0,1,-139.21,-472.71)">
        <path d="M707.21,670.87L701.38,670.87L711.47,645.29L717.54,645.29L727.59,670.87L721.68,670.87L715.32,652.85L714.48,649.85L713.61,652.85L707.21,670.87ZM706.93,665.71L707.72,661.68L720.58,661.68L721.35,665.71L706.93,665.71Z" style="fill:#fff;fill-rule:nonzero;"/>
    </g>
    <g transform="matrix(1,0,0,1,-139.21,-472.71)">
        <rect x="740.78" y="645.5" width="5.71" height="25.37" style="fill:#fff;fill-rule:nonzero;"/>
    </g>
    <g transform="matrix(1,0,0,1,-139.21,-472.71)">
        <path d="M754.52,670.87L754.52,645.5L759.78,645.5L770.48,660.13L774.11,666.67L772.79,666.67L772.02,657.84L772.02,645.51L777.22,645.51L777.22,670.88L771.62,670.88L761.39,656.71L757.19,649.09L758.78,649.09L759.68,658.79L759.68,670.88L754.5,670.88L754.52,670.87Z" style="fill:#fff;fill-rule:nonzero;"/>
    </g>
    <g transform="matrix(1,0,0,1,-139.21,-472.71)">
        <path d="M790.67,670.87L790.67,649.86L782.64,649.86L782.64,645.5L804.49,645.5L804.49,649.86L796.4,649.86L796.4,670.87L790.67,670.87Z" style="fill:#fff;fill-rule:nonzero;"/>
    </g>
    <g transform="matrix(1,0,0,1,-139.21,-472.71)">
        <path d="M809.89,670.87L809.89,645.5L826.87,645.5L826.87,649.76L815.44,649.76L815.44,655.81L824.1,655.81L824.1,659.97L815.44,659.97L815.44,666.47L828.06,666.47L828.06,670.87L809.88,670.87L809.89,670.87Z" style="fill:#fff;fill-rule:nonzero;"/>
    </g>
    <g transform="matrix(1,0,0,1,-139.21,-472.71)">
        <path d="M832.09,658.31C832.09,656.01 832.44,654.03 833.15,652.37C833.86,650.71 834.84,649.36 836.1,648.31C837.36,647.26 838.82,646.48 840.5,645.98C842.18,645.48 843.98,645.23 845.92,645.23C847.31,645.23 848.44,645.29 849.33,645.4C850.21,645.51 850.99,645.64 851.68,645.79C852.36,645.94 853.09,646.08 853.86,646.21L853.68,651.04C852.83,650.66 851.8,650.34 850.6,650.08C849.4,649.82 847.84,649.69 845.93,649.69C844.32,649.69 842.92,650.01 841.72,650.66C840.52,651.31 839.59,652.24 838.93,653.47C838.27,654.7 837.94,656.16 837.94,657.88C837.94,659.6 838.21,661.11 838.76,662.46C839.3,663.82 840.13,664.89 841.23,665.68C842.34,666.47 843.71,666.87 845.36,666.87C846.37,666.87 847.28,666.81 848.11,666.7C848.94,666.59 849.6,666.44 850.11,666.26L850.11,660.66L851.03,661.39L845.61,661.11L845.61,657.01L855.41,657.01L855.41,669.42C854.94,669.43 854.44,669.53 853.9,669.71C853.36,669.89 852.73,670.09 852,670.31C851.27,670.53 850.37,670.73 849.32,670.9C848.27,671.07 846.99,671.15 845.48,671.15C842.71,671.15 840.32,670.63 838.32,669.58C836.32,668.53 834.79,667.05 833.72,665.13C832.65,663.21 832.11,660.94 832.11,658.31L832.09,658.31Z" style="fill:#fff;fill-rule:nonzero;"/>
    </g>
    <g transform="matrix(1,0,0,1,-139.21,-472.71)">
        <path d="M867.69,670.87L862.04,670.87L862.04,645.5L864.22,645.5C865.16,645.5 866.26,645.46 867.53,645.36C868.8,645.26 870.29,645.22 872.02,645.22C873.34,645.22 874.6,645.34 875.8,645.59C877,645.84 878.06,646.26 879,646.85C879.94,647.44 880.67,648.24 881.21,649.24C881.75,650.25 882.02,651.51 882.02,653.03C882.02,654.72 881.73,656.11 881.14,657.21C880.55,658.31 879.72,659.16 878.64,659.77C877.56,660.38 876.3,660.79 874.86,661C874.32,661.08 873.77,661.15 873.21,661.22C872.65,661.29 871.94,661.34 871.09,661.39C870.24,661.44 869.11,661.46 867.71,661.46L867.71,670.86L867.69,670.87ZM867.69,657.48C867.95,657.51 868.32,657.53 868.81,657.54C869.29,657.55 869.79,657.56 870.3,657.56L871.54,657.56C872.63,657.56 873.54,657.37 874.27,657C875,656.63 875.55,656.11 875.91,655.44C876.27,654.77 876.45,654.02 876.45,653.18C876.45,652.46 876.3,651.81 876,651.23C875.7,650.65 875.17,650.18 874.42,649.83C873.67,649.48 872.61,649.3 871.25,649.3C870.62,649.3 870,649.32 869.37,649.37C868.74,649.42 868.19,649.5 867.69,649.62L867.69,657.49L867.69,657.48ZM877.64,670.87C877.44,670.65 877.28,670.41 877.16,670.15C877.04,669.9 876.86,669.52 876.62,669.02C876.19,668.18 875.8,667.33 875.45,666.45C875.1,665.57 874.75,664.75 874.38,664C874.01,663.24 873.59,662.62 873.11,662.13C872.63,661.64 872.05,661.39 871.35,661.36L873,660.18L876.53,659.83C877.26,660.12 877.91,660.61 878.46,661.3C879.02,661.99 879.53,662.79 880,663.69C880.47,664.59 880.93,665.5 881.38,666.44C881.83,667.38 882.29,668.24 882.77,669.04C882.99,669.38 883.22,669.73 883.46,670.09C883.7,670.45 883.85,670.71 883.93,670.87L877.63,670.87L877.64,670.87Z" style="fill:#fff;fill-rule:nonzero;"/>
    </g>
    <g transform="matrix(1,0,0,1,-139.21,-472.71)">
        <path d="M892.01,670.87L886.18,670.87L896.27,645.29L902.34,645.29L912.39,670.87L906.48,670.87L900.12,652.85L899.28,649.85L898.41,652.85L892.01,670.87ZM891.74,665.71L892.53,661.68L905.39,661.68L906.16,665.71L891.74,665.71Z" style="fill:#fff;fill-rule:nonzero;"/>
    </g>
    <g transform="matrix(1,0,0,1,-139.21,-472.71)">
        <path d="M914.9,658.23C914.9,656.11 915.26,654.24 915.97,652.61C916.68,650.99 917.65,649.63 918.88,648.53C920.1,647.43 921.5,646.61 923.05,646.06C924.61,645.51 926.24,645.24 927.94,645.24C929.28,645.24 930.4,645.3 931.31,645.43C932.22,645.56 932.99,645.69 933.62,645.84C934.25,645.99 934.81,646.12 935.29,646.22L934.52,651.17C934.3,651.03 933.95,650.84 933.47,650.61C932.99,650.38 932.34,650.18 931.51,649.99C930.68,649.81 929.62,649.72 928.34,649.72C926.94,649.72 925.66,650.04 924.51,650.69C923.36,651.34 922.44,652.27 921.74,653.49C921.04,654.71 920.7,656.18 920.7,657.91C920.7,659.64 921.02,661.19 921.67,662.51C922.32,663.84 923.23,664.88 924.4,665.63C925.57,666.38 926.95,666.76 928.55,666.76C929.4,666.76 930.26,666.68 931.13,666.51C932,666.34 932.78,666.13 933.48,665.87C934.17,665.62 934.68,665.37 934.99,665.13L934.99,669.82C934.48,670.02 933.9,670.22 933.24,670.42C932.58,670.62 931.83,670.8 930.98,670.94C930.13,671.08 929.15,671.16 928.03,671.16C925.39,671.16 923.08,670.62 921.12,669.55C919.16,668.48 917.63,666.97 916.54,665.04C915.45,663.11 914.9,660.84 914.9,658.24L914.9,658.23Z" style="fill:#fff;fill-rule:nonzero;"/>
    </g>
    <g transform="matrix(1,0,0,1,-139.21,-472.71)">
        <path d="M947.75,670.87L947.75,660.56L948.4,662.84L938.52,645.5L944.7,645.5L949.81,654.49L951.22,658L950.41,658L951.61,654.49L956.71,645.5L962.72,645.5L952.86,662.88L953.53,660.58L953.53,670.87L947.74,670.87L947.75,670.87Z" style="fill:#fff;fill-rule:nonzero;"/>
    </g>
    <g transform="matrix(1,0,0,1,-139.21,-472.71)">
        <path d="M964.42,676.41L963.03,673.5C963.99,673.19 964.92,672.7 965.84,672.03C966.76,671.36 967.4,670.41 967.76,669.16C967.97,668.48 968.11,667.72 968.19,666.89C968.27,666.06 968.32,665.13 968.34,664.11C968.36,663.09 968.37,661.96 968.37,660.73L968.37,645.49L974.08,645.49L974.08,660.65C974.08,662.15 974.08,663.67 974.11,665.19C974.14,666.71 974,668.09 973.73,669.33C973.5,670.52 973.03,671.56 972.34,672.44C971.65,673.32 970.84,674.06 969.91,674.65C968.98,675.24 968.03,675.68 967.06,675.97C966.09,676.26 965.22,676.4 964.43,676.4L964.42,676.41Z" style="fill:#fff;fill-rule:nonzero;"/>
    </g>
    <g transform="matrix(1,0,0,1,-139.21,-472.71)">
        <path d="M982.14,670.88L982.14,645.5L987.4,645.5L998.1,660.13L1001.73,666.67L1000.42,666.67L999.65,657.84L999.65,645.51L1004.85,645.51L1004.85,670.88L999.26,670.88L989.03,656.71L984.83,649.09L986.42,649.09L987.32,658.79L987.32,670.88L982.14,670.88Z" style="fill:#fff;fill-rule:nonzero;"/>
    </g>
    <g transform="matrix(1,0,0,1,-139.21,-472.71)">
        <path d="M1015.11,670.87L1009.28,670.87L1019.37,645.29L1025.44,645.29L1035.49,670.87L1029.58,670.87L1023.22,652.85L1022.38,649.85L1021.51,652.85L1015.11,670.87ZM1014.83,665.71L1015.62,661.68L1028.48,661.68L1029.25,665.71L1014.83,665.71Z" style="fill:#fff;fill-rule:nonzero;"/>
    </g>
</svg>