<svg id="logo" xmlns="http://www.w3.org/2000/svg" width="220.105" height="48" viewBox="0 0 220.105 48">
  <path id="Path_12" data-name="Path 12" d="M66.144,56.764a2.015,2.015,0,0,1,1-.25,3.885,3.885,0,0,1,.825.072,2.341,2.341,0,0,1,.515.165,2.848,2.848,0,0,1,.276.15l.206-1.331c-.131-.028-.279-.062-.444-.1s-.367-.076-.606-.109a6.648,6.648,0,0,0-.88-.048,3.9,3.9,0,0,0-1.3.217,3.228,3.228,0,0,0-1.1.65,3.1,3.1,0,0,0-.764,1.071,3.634,3.634,0,0,0-.281,1.479,3.565,3.565,0,0,0,.431,1.788A3.02,3.02,0,0,0,65.229,61.7a3.769,3.769,0,0,0,1.83.423,4.647,4.647,0,0,0,.77-.057,4.7,4.7,0,0,0,.6-.137c.174-.053.328-.106.462-.157V60.513a1.741,1.741,0,0,1-.4.191,4.546,4.546,0,0,1-.611.168,3.389,3.389,0,0,1-.676.069,1.906,1.906,0,0,1-1.8-1.107,2.689,2.689,0,0,1-.253-1.2,2.289,2.289,0,0,1,.271-1.15,1.855,1.855,0,0,1,.723-.725" transform="translate(-16.237 -14.123)" fill="#fff"/>
  <path id="Path_13" data-name="Path 13" d="M75.338,59.221H77.6V58.107H75.338V56.553h2.988V55.407H73.841v6.668h4.8V60.894h-3.3Z" transform="translate(-18.855 -14.148)" fill="#fff"/>
  <path id="Path_14" data-name="Path 14" d="M87.595,58.586l.144,1.612-.542-.982-2.782-3.81H83v6.669H84.39V58.958l-.159-1.668.6,1.09,2.658,3.7h1.507V55.407h-1.4Z" transform="translate(-21.192 -14.148)" fill="#fff"/>
  <path id="Path_15" data-name="Path 15" d="M93.636,56.579h2.1v5.5h1.544v-5.5H99.38V55.408H93.636Z" transform="translate(-23.909 -14.148)" fill="#fff"/>
  <path id="Path_16" data-name="Path 16" d="M109.42,61.571a6.663,6.663,0,0,1-.369-.681q-.172-.366-.356-.72a3.594,3.594,0,0,0-.4-.622,1.323,1.323,0,0,0-.286-.258,2.559,2.559,0,0,0,.312-.135,1.652,1.652,0,0,0,.661-.671,2.316,2.316,0,0,0,.235-1.109,2.108,2.108,0,0,0-.214-1,1.665,1.665,0,0,0-.586-.632,2.549,2.549,0,0,0-.846-.329,4.827,4.827,0,0,0-.991-.1q-.693,0-1.192.035t-.873.037h-.583v6.668h1.523V59.6c.372,0,.668-.005.89-.018l.062,0h0a.658.658,0,0,1,.452.194,1.72,1.72,0,0,1,.325.48q.142.3.278.64t.3.678c.065.127.115.225.147.292a.924.924,0,0,0,.121.188h1.7c-.025-.045-.067-.114-.127-.207l-.178-.273m-3.291-3.017c-.133,0-.261,0-.387-.007s-.222-.009-.291-.016V56.482a2.62,2.62,0,0,1,.436-.062c.16-.01.322-.016.487-.016a1.987,1.987,0,0,1,.821.137.819.819,0,0,1,.41.366,1.092,1.092,0,0,1,.117.5,1.224,1.224,0,0,1-.14.586.987.987,0,0,1-.423.41,1.5,1.5,0,0,1-.707.15l-.323,0" transform="translate(-26.537 -14.123)" fill="#fff"/>
  <path id="Path_17" data-name="Path 17" d="M118.413,59.087a2.581,2.581,0,0,1-.3,1.409,1.2,1.2,0,0,1-1.071.439,1.709,1.709,0,0,1-.823-.171.991.991,0,0,1-.455-.573,3.436,3.436,0,0,1-.141-1.1l.01-3.68h-1.517l-.01,3.861a3.775,3.775,0,0,0,.281,1.515,2.08,2.08,0,0,0,.924,1.006,3.547,3.547,0,0,0,1.731.359,3.473,3.473,0,0,0,1.636-.338,2.1,2.1,0,0,0,.937-.975,3.58,3.58,0,0,0,.3-1.541V55.407h-1.507Z" transform="translate(-29.137 -14.148)" fill="#fff"/>
  <path id="Path_18" data-name="Path 18" d="M130.228,55.407l-.986,3.484-.3,1.527-.356-1.527L127.5,55.407h-2.1l-.8,6.668h1.43l.331-3.634.139-1.925.515,1.967,1.275,3.633h1.2l1.2-3.633.486-1.967.119,1.925.381,3.634h1.492l-.913-6.668Z" transform="translate(-31.816 -14.148)" fill="#fff"/>
  <path id="Path_19" data-name="Path 19" d="M141.8,56.579h2.1v5.5h1.544v-5.5h2.105V55.408H141.8Z" transform="translate(-36.207 -14.148)" fill="#fff"/>
  <path id="Path_20" data-name="Path 20" d="M153.586,59.221h2.265V58.107h-2.265V56.553h2.988V55.407h-4.486v6.668h4.8V60.894h-3.3Z" transform="translate(-38.834 -14.148)" fill="#fff"/>
  <path id="Path_21" data-name="Path 21" d="M166.736,61.571a6.66,6.66,0,0,1-.369-.681q-.172-.366-.356-.72a3.594,3.594,0,0,0-.4-.622,1.324,1.324,0,0,0-.286-.258,2.56,2.56,0,0,0,.312-.135,1.652,1.652,0,0,0,.66-.671,2.316,2.316,0,0,0,.235-1.109,2.108,2.108,0,0,0-.214-1,1.665,1.665,0,0,0-.586-.632,2.549,2.549,0,0,0-.846-.329,4.828,4.828,0,0,0-.991-.1q-.693,0-1.192.035t-.873.037h-.583v6.668h1.523V59.6c.372,0,.668-.005.89-.018l.062,0h0a.658.658,0,0,1,.452.194,1.72,1.72,0,0,1,.325.48q.142.3.279.64t.3.678c.065.127.115.225.147.292a.924.924,0,0,0,.121.188h1.7c-.025-.045-.067-.114-.127-.207l-.178-.273m-3.291-3.017c-.133,0-.261,0-.387-.007s-.222-.009-.291-.016V56.482a2.62,2.62,0,0,1,.436-.062c.16-.01.322-.016.487-.016a1.987,1.987,0,0,1,.821.137.819.819,0,0,1,.41.366,1.092,1.092,0,0,1,.117.5,1.224,1.224,0,0,1-.14.586.987.987,0,0,1-.423.41,1.5,1.5,0,0,1-.707.15l-.323,0" transform="translate(-41.172 -14.123)" fill="#fff"/>
  <path id="Path_22" data-name="Path 22" d="M173.133,55.331l-2.643,6.725h1.569l.468-1.337h2.824l.47,1.337h1.585l-2.632-6.725ZM172.9,59.64l.806-2.3.232-.8.221.8.809,2.3Z" transform="translate(-43.533 -14.128)" fill="#fff"/>
  <path id="Path_23" data-name="Path 23" d="M186.059,55.538a4.2,4.2,0,0,0-1.458-.227c-.348,0-.681.011-1,.036s-.643.036-.97.036h-.614v6.668h1.528v-2c.086,0,.2,0,.328,0l.514,0a3.3,3.3,0,0,0,2.183-.635,2.221,2.221,0,0,0,.754-1.8,2.477,2.477,0,0,0-.325-1.35,1.827,1.827,0,0,0-.937-.735m-.441,2.877a1.105,1.105,0,0,1-.535.416,2.066,2.066,0,0,1-.725.124c-.145,0-.284,0-.418-.012s-.267-.016-.4-.024V56.435c.113-.016.238-.029.372-.036s.273-.013.418-.016a1.567,1.567,0,0,1,1.115.31,1.172,1.172,0,0,1,.372.924,1.376,1.376,0,0,1-.2.8" transform="translate(-46.476 -14.123)" fill="#fff"/>
  <rect id="Rectangle_5" data-name="Rectangle 5" width="1.538" height="6.668" transform="translate(142.988 41.259)" fill="#fff"/>
  <rect id="Rectangle_6" data-name="Rectangle 6" width="1.538" height="6.668" transform="translate(147.287 41.259)" fill="#fff"/>
  <rect id="Rectangle_7" data-name="Rectangle 7" width="1.538" height="6.668" transform="translate(154.259 41.259)" fill="#fff"/>
  <path id="Path_24" data-name="Path 24" d="M221.807,61.571a6.661,6.661,0,0,1-.369-.681q-.172-.366-.356-.72a3.6,3.6,0,0,0-.4-.622,1.322,1.322,0,0,0-.286-.258,2.556,2.556,0,0,0,.312-.135,1.652,1.652,0,0,0,.661-.671,2.315,2.315,0,0,0,.235-1.109,2.108,2.108,0,0,0-.214-1,1.665,1.665,0,0,0-.586-.632,2.549,2.549,0,0,0-.846-.329,4.828,4.828,0,0,0-.991-.1q-.693,0-1.192.035t-.873.037h-.583v6.668h1.523V59.6c.372,0,.668-.005.89-.018l.062,0h0a.658.658,0,0,1,.452.194,1.718,1.718,0,0,1,.325.48q.142.3.279.64t.3.678c.065.127.115.225.147.292a.921.921,0,0,0,.121.188h1.7c-.025-.045-.067-.114-.127-.207l-.178-.273m-3.291-3.017c-.133,0-.261,0-.387-.007s-.222-.009-.291-.016V56.482a2.619,2.619,0,0,1,.436-.062c.16-.01.322-.016.487-.016a1.987,1.987,0,0,1,.821.137.819.819,0,0,1,.41.366,1.092,1.092,0,0,1,.117.5,1.224,1.224,0,0,1-.14.586.987.987,0,0,1-.423.41,1.5,1.5,0,0,1-.707.15l-.323,0" transform="translate(-55.234 -14.123)" fill="#fff"/>
  <path id="Path_25" data-name="Path 25" d="M230.8,59.087a2.581,2.581,0,0,1-.3,1.409,1.2,1.2,0,0,1-1.071.439,1.709,1.709,0,0,1-.823-.171.99.99,0,0,1-.455-.573,3.435,3.435,0,0,1-.142-1.1l.01-3.68h-1.517l-.01,3.861a3.776,3.776,0,0,0,.281,1.515,2.08,2.08,0,0,0,.924,1.006,3.547,3.547,0,0,0,1.731.359,3.473,3.473,0,0,0,1.636-.338,2.1,2.1,0,0,0,.937-.975,3.581,3.581,0,0,0,.3-1.541V55.407H230.8Z" transform="translate(-57.834 -14.148)" fill="#fff"/>
  <path id="Path_26" data-name="Path 26" d="M239.35,56.764a2.015,2.015,0,0,1,1-.25,3.885,3.885,0,0,1,.825.072,2.341,2.341,0,0,1,.515.165,2.859,2.859,0,0,1,.276.15l.206-1.331c-.131-.028-.279-.062-.444-.1s-.367-.076-.606-.109a6.649,6.649,0,0,0-.88-.048,3.9,3.9,0,0,0-1.3.217,3.228,3.228,0,0,0-1.1.65,3.1,3.1,0,0,0-.764,1.071,3.634,3.634,0,0,0-.282,1.479,3.565,3.565,0,0,0,.431,1.788,3.02,3.02,0,0,0,1.207,1.185,3.769,3.769,0,0,0,1.83.423,4.646,4.646,0,0,0,.77-.057,4.7,4.7,0,0,0,.6-.137c.174-.053.328-.106.462-.157V60.513a1.741,1.741,0,0,1-.4.191,4.546,4.546,0,0,1-.611.168,3.39,3.39,0,0,1-.676.069,1.906,1.906,0,0,1-1.8-1.107,2.689,2.689,0,0,1-.253-1.2,2.289,2.289,0,0,1,.271-1.15,1.855,1.855,0,0,1,.723-.725" transform="translate(-60.464 -14.123)" fill="#fff"/>
  <path id="Path_27" data-name="Path 27" d="M251.5,58.143h-2.921V55.407h-1.528v6.668h1.528V59.263H251.5v2.813h1.523V55.407H251.5Z" transform="translate(-63.081 -14.148)" fill="#fff"/>
  <path id="Path_28" data-name="Path 28" d="M262.538,59.087a2.581,2.581,0,0,1-.3,1.409,1.2,1.2,0,0,1-1.071.439,1.709,1.709,0,0,1-.823-.171.99.99,0,0,1-.455-.573,3.436,3.436,0,0,1-.142-1.1l.01-3.68h-1.517l-.01,3.861a3.776,3.776,0,0,0,.281,1.515,2.08,2.08,0,0,0,.924,1.006,3.547,3.547,0,0,0,1.731.359,3.473,3.473,0,0,0,1.636-.338,2.1,2.1,0,0,0,.937-.975,3.58,3.58,0,0,0,.3-1.541V55.407h-1.507Z" transform="translate(-65.938 -14.148)" fill="#fff"/>
  <path id="Path_29" data-name="Path 29" d="M63.18,29.717l.558,1.2H78.43V27.8H68.836l1.047-1.187,8.841-12.527-.587-1.215H64.52v3.045h8.6l-.9,1.061Z" transform="translate(-16.132 -3.287)" fill="#fff"/>
  <path id="Path_30" data-name="Path 30" d="M97.991,12.61q-.908,0-1.871.049t-1.815.1q-.852.049-1.411.048H91.162V30.85h1.564q1.09,0,2.346.091t2.612.1a11.322,11.322,0,0,0,5.272-1.1,7.9,7.9,0,0,0,3.428-3.3,10.785,10.785,0,0,0,1.2-5.286,8.692,8.692,0,0,0-2.319-6.46q-2.318-2.3-7.276-2.3m4.679,12.675a4.447,4.447,0,0,1-1.857,2.025,5.755,5.755,0,0,1-2.751.663q-.727,0-1.488-.042a7.2,7.2,0,0,1-1.278-.168V15.781q.378-.056,1.019-.112t1.271-.056a6.057,6.057,0,0,1,4.329,1.362q1.425,1.362,1.425,4.769a8.086,8.086,0,0,1-.67,3.541" transform="translate(-23.277 -3.22)" fill="#fff"/>
  <path id="Path_31" data-name="Path 31" d="M124.989,24.216q1.509,0,2.409-.049c.061,0,.108-.008.167-.011l-.006,0a1.763,1.763,0,0,1,1.222.523,4.647,4.647,0,0,1,.879,1.3q.384.8.755,1.732t.817,1.836c.176.345.31.608.4.789a2.561,2.561,0,0,0,.328.509h4.595q-.1-.181-.342-.558t-.482-.74a18.025,18.025,0,0,1-1-1.843q-.468-.992-.964-1.949a9.707,9.707,0,0,0-1.089-1.682,3.629,3.629,0,0,0-.742-.688,6.734,6.734,0,0,0,.812-.374,4.475,4.475,0,0,0,1.787-1.816,6.254,6.254,0,0,0,.636-3,5.714,5.714,0,0,0-.579-2.716,4.463,4.463,0,0,0-1.585-1.711,6.913,6.913,0,0,0-2.291-.894,13.2,13.2,0,0,0-2.681-.266q-1.872,0-3.226.1t-2.361.1H120.87V30.85h4.119Zm0-8.436a7.222,7.222,0,0,1,1.18-.168c.433-.028.874-.042,1.32-.042a5.394,5.394,0,0,1,2.221.37,2.231,2.231,0,0,1,1.11.992,2.97,2.97,0,0,1,.315,1.362,3.3,3.3,0,0,1-.378,1.585,2.663,2.663,0,0,1-1.145,1.11,4.065,4.065,0,0,1-1.913.405c-.223,0-.515,0-.873-.007s-.707-.011-1.047-.021-.6-.023-.79-.042Z" transform="translate(-30.863 -3.22)" fill="#fff"/>
  <path id="Path_32" data-name="Path 32" d="M163.682,16.814a7,7,0,0,0-2.968-3.142,9.662,9.662,0,0,0-4.832-1.062,10.59,10.59,0,0,0-4.79,1.076,7.362,7.362,0,0,0-3.156,3.086,10.484,10.484,0,0,0-1.145,5,10.829,10.829,0,0,0,1.025,5.035,7.257,7.257,0,0,0,3.052,3.178,9.724,9.724,0,0,0,4.818,1.06,9.934,9.934,0,0,0,4.686-1.1,7.5,7.5,0,0,0,3.086-3.142,11.152,11.152,0,0,0,1.167-5.1,10.585,10.585,0,0,0-.943-4.888M159.248,26.4a4.13,4.13,0,0,1-3.464,1.585,4.509,4.509,0,0,1-2.654-.754A4.665,4.665,0,0,1,151.5,25.11a8.6,8.6,0,0,1-.559-3.254,8.528,8.528,0,0,1,.607-3.457,4.319,4.319,0,0,1,1.718-2.025,5.011,5.011,0,0,1,2.619-.663,4.07,4.07,0,0,1,4.079,2.778,8.861,8.861,0,0,1,.516,3.184,7.641,7.641,0,0,1-1.228,4.728" transform="translate(-37.481 -3.22)" fill="#fff"/>
  <path id="Path_33" data-name="Path 33" d="M188.535,12.873l-3.618,9.692-.964,3.478-1.034-3.478-3.784-9.692h-4.344l7.333,18.1h3.561l7.22-18.1Z" transform="translate(-44.631 -3.287)" fill="#fff"/>
  <rect id="Rectangle_8" data-name="Rectangle 8" width="4.162" height="18.044" transform="translate(153.204 9.587)" fill="#fff"/>
  <path id="Path_34" data-name="Path 34" d="M232.5,23.881a5.107,5.107,0,0,0-1.209-1.488,9.807,9.807,0,0,0-1.76-1.18q-1-.531-2.1-.991-1.312-.586-2.116-1.012a3.745,3.745,0,0,1-1.159-.867,1.627,1.627,0,0,1-.357-1.054,1.144,1.144,0,0,1,.392-.866,2.665,2.665,0,0,1,1.1-.565,6.166,6.166,0,0,1,1.675-.2,9.229,9.229,0,0,1,1.781.161,7.9,7.9,0,0,1,1.452.418,6.769,6.769,0,0,1,1.054.524l.684-3.129a8.977,8.977,0,0,0-1.836-.656,12.847,12.847,0,0,0-3.345-.363,11.769,11.769,0,0,0-2.682.293,7.235,7.235,0,0,0-2.206.887,4.367,4.367,0,0,0-1.488,1.515,4.251,4.251,0,0,0-.538,2.179,4.444,4.444,0,0,0,.678,2.479,6.492,6.492,0,0,0,1.774,1.8,14,14,0,0,0,2.367,1.32q1.48.642,2.395,1.082a4.54,4.54,0,0,1,1.334.887,1.5,1.5,0,0,1,.419,1.062,1.39,1.39,0,0,1-.789,1.313,5.3,5.3,0,0,1-2.4.418,10.616,10.616,0,0,1-1.961-.182,13.912,13.912,0,0,1-1.781-.447,8.991,8.991,0,0,1-1.3-.517l-.657,3.241a5.778,5.778,0,0,0,1.279.474,18.412,18.412,0,0,0,2.136.44,17.259,17.259,0,0,0,2.6.188,9.846,9.846,0,0,0,3.715-.635,5.479,5.479,0,0,0,2.423-1.8,4.569,4.569,0,0,0,.859-2.787,4.072,4.072,0,0,0-.447-1.941" transform="translate(-56.134 -3.22)" fill="#fff"/>
  <path id="Path_35" data-name="Path 35" d="M259.968,29.6q-.558-.907-1.291-2.011t-1.516-2.235q-.782-1.132-1.508-2.171t-1.314-1.844c-.208-.287-.39-.534-.549-.747l6.736-7.724h-4.58l-7.1,7.877V12.873H244.9V30.918h3.952V25.535l2.181-2.149c.241.326.49.663.76,1.023q.593.8,1.221,1.648t1.222,1.718q.593.866,1.111,1.718c.232.391.4.687.5.887a4.437,4.437,0,0,0,.32.538h4.665q-.223-.335-.426-.656t-.44-.657" transform="translate(-62.533 -3.287)" fill="#fff"/>
  <path id="Path_36" data-name="Path 36" d="M288.516,16.814a7,7,0,0,0-2.968-3.142,9.663,9.663,0,0,0-4.832-1.062,10.59,10.59,0,0,0-4.79,1.076,7.362,7.362,0,0,0-3.156,3.086,10.484,10.484,0,0,0-1.145,5,10.829,10.829,0,0,0,1.025,5.035,7.254,7.254,0,0,0,3.052,3.178,9.724,9.724,0,0,0,4.818,1.06,9.934,9.934,0,0,0,4.686-1.1,7.5,7.5,0,0,0,3.086-3.142,11.153,11.153,0,0,0,1.167-5.1,10.585,10.585,0,0,0-.943-4.888M284.081,26.4a4.127,4.127,0,0,1-3.463,1.585,4.51,4.51,0,0,1-2.654-.754,4.665,4.665,0,0,1-1.634-2.122,8.6,8.6,0,0,1-.558-3.254,8.516,8.516,0,0,1,.607-3.457,4.319,4.319,0,0,1,1.718-2.025,5.01,5.01,0,0,1,2.619-.663,4.07,4.07,0,0,1,4.079,2.778,8.862,8.862,0,0,1,.516,3.184,7.636,7.636,0,0,1-1.229,4.728" transform="translate(-69.356 -3.22)" fill="#fff"/>
  <path id="Path_37" data-name="Path 37" d="M35.674,24.879a1.677,1.677,0,0,1-1.082-.853c-2.188-3.413-.949-13.967.346-19.818L31.565,3.083C25.392,16.694,17.645,27.638,15,26.514c-2.343-1,.062-12.58,5.047-24.3L17.453,0,0,11.016l1.908,3.023,13.1-8.475c-.78,2.142-1.909,5.114-2.67,7.808-1.722,6.091-3.463,14.42,1.267,16.431a4.376,4.376,0,0,0,1.734.36c3.411,0,7.426-3.943,12.406-12.2a50.961,50.961,0,0,0,2.672-5.2A33.981,33.981,0,0,0,30,19.854a13.384,13.384,0,0,0,1.585,6.1,5.27,5.27,0,0,0,3.336,2.419c5.4,1.163,10.233-7.773,11.72-11.679H42.774c-1.868,4.175-5.279,8.577-7.1,8.186" fill="#fff"/>
</svg>
