<!-- <?xml version="1.0" encoding="utf-8"?>
<svg version="1.1" id="Warstwa_1" xmlns="http://www.w3.org/2000/svg" xmlns:xlink="http://www.w3.org/1999/xlink" x="0px" y="0px"
	 viewBox="0 0 348 348" style="enable-background:new 0 0 348 348;" xml:space="preserve">
<style type="text/css">
	.st0{clip-path:url(#SVGID_00000107576838767166075510000009278029973903586735_);fill:#F5D7BA;}
</style>
<g>
	<defs>
		<rect id="SVGID_1_" width="348" height="348"/>
	</defs>
	<clipPath id="SVGID_00000114761075745461785360000011398534637107925126_">
		<use xlink:href="#SVGID_1_"  style="overflow:visible;"/>
	</clipPath>
	<path id="Path_11" style="clip-path:url(#SVGID_00000114761075745461785360000011398534637107925126_);fill:#F5D7BA;" d="
		M213.4,200.5c0.9,14.6,4.1,26.8,8.9,34.5c4.7,7.3,11.2,12,18.8,13.6c7.4,1.6,14.9,0.1,22.4-4.4c6.4-3.9,12.8-9.9,18.9-18
		c9.3-12.1,16.7-25.6,22-39.9l-18.9-6.6c-8.7,24.7-26.6,51.2-38.7,49.7c-9.5-1.2-12.6-17.3-13.6-26.1c-2.9-26.5,2.4-66.3,7.9-91.1
		l-18.9-6.3c-33.3,73.3-74.6,133-91.4,133c-0.8,0-1.6-0.1-2.3-0.5c-3.3-1.4-5-6.3-5.1-14.6c-0.1-7.8,1.2-18.7,3.8-31.5
		c5.5-26.5,16.4-59.9,29.8-91.4l-14.6-12.4l-98.6,62.2l10.7,17l74.2-48l-0.1,0.2c-0.6,1.7-1.2,3.4-1.9,5.2
		c-4.2,11.5-9.5,25.8-13.2,38.9c-9.7,34.4-19.6,81.5,7.1,92.8c3.1,1.3,6.4,2,9.8,2c9.7,0,20.1-5.6,31.7-17
		c11.6-11.4,24.2-28.4,38.4-52c5.6-9.5,10.6-19.3,15.1-29.4l0.3-0.6l-0.1,0.6C212.7,180.9,212.9,193.1,213.4,200.5"/>
</g>
</svg> -->

<svg xmlns="http://www.w3.org/2000/svg" xmlns:xlink="http://www.w3.org/1999/xlink" xmlns:serif="http://www.serif.com/" width="100%" height="100%" viewBox="0 0 660 432" version="1.1" xml:space="preserve" style="fill-rule:evenodd;clip-rule:evenodd;stroke-linejoin:round;stroke-miterlimit:2;">
    <g transform="matrix(1,0,0,1,-630.21,-744.44)">
        <path d="M1059.39,1028.26C1061.64,1065.21 1069.68,1096.17 1082.03,1115.45C1093.82,1133.84 1110.28,1145.78 1129.64,1149.96C1148.24,1153.96 1167.29,1150.19 1186.27,1138.73C1202.4,1128.99 1218.53,1113.69 1234.21,1093.26C1261.46,1057.77 1280.02,1020.2 1289.81,992.32L1241.93,975.56C1220,1038.08 1174.52,1105.09 1144.12,1101.21C1120.11,1098.15 1112.17,1057.36 1109.71,1035.1C1102.31,968.11 1115.73,867.41 1129.63,804.52L1081.75,788.55C997.6,974.02 893.08,1124.91 850.48,1124.93C848.34,1124.93 846.37,1124.55 844.56,1123.78C836.3,1120.27 831.92,1107.83 831.53,1086.82C831.16,1067.01 834.51,1039.48 841.21,1007.21C855.15,940.11 882.63,855.79 916.61,775.87L879.66,744.44L630.21,901.88L657.28,944.77L845.13,823.26L844.91,823.87C843.38,828.05 841.77,832.46 840.08,837.05C829.4,866.13 816.1,902.31 806.7,935.59C782.08,1022.66 757.16,1141.75 824.71,1170.47C832.71,1173.87 841.03,1175.59 849.44,1175.59C874.02,1175.59 900.25,1161.55 929.63,1132.68C959.06,1103.76 990.84,1060.74 1026.79,1001.17C1038.83,981.21 1055.26,949.24 1065.01,926.81L1065.67,925.3L1065.43,926.93C1057.66,978.84 1058.27,1009.64 1059.41,1028.29L1059.39,1028.26Z" style="fill:#F5D7BA;fill-rule:nonzero;"/>
    </g>
</svg>