<svg xmlns="http://www.w3.org/2000/svg" xmlns:xlink="http://www.w3.org/1999/xlink" width="604" height="604" viewBox="0 0 604 604">
  <defs>
    <clipPath id="clip-path">
      <rect id="Rectangle_4" data-name="Rectangle 4" width="604" height="604" transform="translate(0)" fill="#fcf6f0"/>
    </clipPath>
  </defs>
  <g id="Group_373" data-name="Group 373" transform="translate(22.534 -14.653)">
    <g id="Group_4" data-name="Group 4" transform="translate(-22.534 14.653)" clip-path="url(#clip-path)">
      <path id="Path_10" data-name="Path 10" d="M301.571,0C135.283,0,0,135.283,0,301.571S135.283,603.141,301.571,603.141,603.138,467.858,603.138,301.571,467.855,0,301.571,0m0,568.314c-147.081,0-266.741-119.66-266.741-266.744S154.49,34.827,301.571,34.827s266.735,119.66,266.735,266.744S448.649,568.314,301.571,568.314" transform="translate(0.859 0.734)" fill="#fcf6f0"/>
      <path id="Path_11" data-name="Path 11" d="M319.917,246.217c1.547,25.375,7.066,46.637,15.546,59.868,8.1,12.628,19.4,20.825,32.691,23.7,12.771,2.745,25.854.155,38.883-7.715,11.078-6.689,22.151-17.193,32.92-31.222,18.713-24.37,31.457-50.167,38.179-69.311l-32.879-11.507c-15.055,42.931-46.289,88.943-67.164,86.278-16.488-2.1-21.937-30.109-23.629-45.4-5.083-46,4.134-115.145,13.678-158.335L335.261,81.609C277.474,208.972,205.709,312.584,176.456,312.6a10.268,10.268,0,0,1-4.066-.791c-5.672-2.409-8.678-10.947-8.946-25.381-.253-13.6,2.043-32.5,6.647-54.667,9.571-46.081,28.441-103.977,51.773-158.858L196.492,51.312,25.2,159.423l18.591,29.453,128.989-83.438-.149.416c-1.05,2.873-2.159,5.9-3.319,9.047-7.334,19.965-16.464,44.814-22.924,67.664-16.9,59.791-34.015,141.564,12.366,161.288a43.261,43.261,0,0,0,16.982,3.518c16.878,0,34.892-9.642,55.065-29.467,20.209-19.864,42.033-49.4,66.718-90.306a504.861,504.861,0,0,0,26.243-51.065l.449-1.038-.164,1.121c-5.336,35.647-4.916,56.793-4.134,69.6" transform="translate(50.61 102.029)" fill="#fcf6f0"/>
    </g>
  </g>
</svg>
