<svg id="Component_24_1" data-name="Component 24 – 1" xmlns="http://www.w3.org/2000/svg" width="175.135" height="24" viewBox="0 0 175.135 24">
  <path id="Path_29" data-name="Path 29" d="M63.18,26.275l.444.955h11.69V24.753H67.68l.833-.944,7.034-9.968-.467-.967H64.246V15.3h6.846l-.712.844Z" transform="translate(-25.744 -5.246)" fill="#005c65"/>
  <path id="Path_30" data-name="Path 30" d="M96.6,12.61q-.723,0-1.489.039t-1.445.078q-.678.039-1.123.039H91.162V27.124h1.244q.867,0,1.867.072t2.079.083a9.009,9.009,0,0,0,4.2-.872,6.284,6.284,0,0,0,2.728-2.622,8.581,8.581,0,0,0,.956-4.206,6.916,6.916,0,0,0-1.845-5.14q-1.844-1.827-5.789-1.828M100.319,22.7a3.538,3.538,0,0,1-1.478,1.612,4.579,4.579,0,0,1-2.189.527q-.579,0-1.184-.033a5.726,5.726,0,0,1-1.017-.133V15.133q.3-.044.811-.089T96.274,15a4.819,4.819,0,0,1,3.445,1.084q1.134,1.083,1.133,3.794a6.434,6.434,0,0,1-.533,2.817" transform="translate(-37.146 -5.138)" fill="#005c65"/>
  <path id="Path_31" data-name="Path 31" d="M124.148,21.845q1.2,0,1.917-.039l.133-.009,0,0a1.4,1.4,0,0,1,.972.417,3.7,3.7,0,0,1,.7,1.033q.306.64.6,1.378t.65,1.461c.14.274.246.484.316.628a2.037,2.037,0,0,0,.261.405h3.656q-.077-.144-.272-.444t-.383-.589a14.343,14.343,0,0,1-.795-1.466q-.372-.789-.767-1.551a7.724,7.724,0,0,0-.867-1.339,2.888,2.888,0,0,0-.59-.547,5.358,5.358,0,0,0,.646-.3,3.56,3.56,0,0,0,1.422-1.445,4.976,4.976,0,0,0,.506-2.389,4.546,4.546,0,0,0-.461-2.161,3.552,3.552,0,0,0-1.261-1.362,5.5,5.5,0,0,0-1.823-.711,10.5,10.5,0,0,0-2.133-.212q-1.49,0-2.567.078t-1.878.078H120.87V27.123h3.278Zm0-6.712a5.746,5.746,0,0,1,.939-.134c.344-.022.7-.033,1.05-.033a4.292,4.292,0,0,1,1.767.294,1.775,1.775,0,0,1,.883.789,2.363,2.363,0,0,1,.251,1.084,2.629,2.629,0,0,1-.3,1.261,2.119,2.119,0,0,1-.911.883,3.234,3.234,0,0,1-1.522.322c-.178,0-.41,0-.694-.005s-.563-.009-.833-.017-.481-.018-.629-.034Z" transform="translate(-49.252 -5.138)" fill="#005c65"/>
  <path id="Path_32" data-name="Path 32" d="M160.23,15.955a5.572,5.572,0,0,0-2.362-2.5,7.688,7.688,0,0,0-3.845-.845,8.427,8.427,0,0,0-3.812.856,5.858,5.858,0,0,0-2.511,2.455,8.342,8.342,0,0,0-.911,3.979,8.617,8.617,0,0,0,.816,4.006,5.775,5.775,0,0,0,2.429,2.529,7.737,7.737,0,0,0,3.834.844,7.9,7.9,0,0,0,3.729-.872,5.965,5.965,0,0,0,2.455-2.5,8.874,8.874,0,0,0,.928-4.062,8.423,8.423,0,0,0-.75-3.889M156.7,23.584a3.286,3.286,0,0,1-2.756,1.261,3.588,3.588,0,0,1-2.112-.6,3.712,3.712,0,0,1-1.3-1.689,6.84,6.84,0,0,1-.444-2.589,6.785,6.785,0,0,1,.483-2.75A3.436,3.436,0,0,1,151.94,15.6a3.987,3.987,0,0,1,2.084-.527,3.238,3.238,0,0,1,3.245,2.211,7.051,7.051,0,0,1,.411,2.534,6.08,6.08,0,0,1-.977,3.762" transform="translate(-59.814 -5.138)" fill="#005c65"/>
  <path id="Path_33" data-name="Path 33" d="M185.727,12.873l-2.878,7.712-.767,2.768-.822-2.768-3.011-7.712h-3.457l5.835,14.4h2.833l5.745-14.4Z" transform="translate(-71.225 -5.246)" fill="#005c65"/>
  <rect id="Rectangle_8" data-name="Rectangle 8" width="3.312" height="14.357" transform="translate(121.903 7.628)" fill="#005c65"/>
  <path id="Path_34" data-name="Path 34" d="M229.91,21.578a4.064,4.064,0,0,0-.962-1.184,7.8,7.8,0,0,0-1.4-.939q-.795-.422-1.673-.789-1.044-.467-1.683-.805a2.98,2.98,0,0,1-.923-.69,1.3,1.3,0,0,1-.284-.839.911.911,0,0,1,.312-.689,2.121,2.121,0,0,1,.878-.45,4.906,4.906,0,0,1,1.333-.161,7.344,7.344,0,0,1,1.417.128,6.284,6.284,0,0,1,1.155.333,5.386,5.386,0,0,1,.839.417l.545-2.49A7.143,7.143,0,0,0,228,12.9a10.222,10.222,0,0,0-2.662-.289,9.365,9.365,0,0,0-2.134.233,5.757,5.757,0,0,0-1.755.706,3.475,3.475,0,0,0-1.184,1.206,3.383,3.383,0,0,0-.428,1.734,3.536,3.536,0,0,0,.539,1.972,5.166,5.166,0,0,0,1.411,1.433,11.141,11.141,0,0,0,1.884,1.051q1.178.511,1.906.861a3.612,3.612,0,0,1,1.061.706,1.194,1.194,0,0,1,.334.845,1.106,1.106,0,0,1-.628,1.045,4.215,4.215,0,0,1-1.906.333,8.447,8.447,0,0,1-1.561-.145,11.07,11.07,0,0,1-1.417-.356,7.154,7.154,0,0,1-1.033-.411l-.523,2.579a4.6,4.6,0,0,0,1.017.377,14.65,14.65,0,0,0,1.7.35,13.733,13.733,0,0,0,2.073.15,7.834,7.834,0,0,0,2.956-.505,4.36,4.36,0,0,0,1.928-1.433,3.635,3.635,0,0,0,.684-2.218,3.24,3.24,0,0,0-.356-1.544" transform="translate(-89.581 -5.138)" fill="#005c65"/>
  <path id="Path_35" data-name="Path 35" d="M256.889,26.186q-.444-.722-1.027-1.6t-1.206-1.778q-.622-.9-1.2-1.728t-1.045-1.467c-.166-.228-.31-.425-.437-.594l5.36-6.146h-3.645l-5.646,6.268V12.873H244.9V27.231h3.144V22.948l1.736-1.71c.191.26.39.527.6.814q.472.633.972,1.311t.972,1.367q.472.689.884,1.367c.184.311.318.546.4.706a3.528,3.528,0,0,0,.255.428h3.712q-.178-.267-.339-.522t-.35-.523" transform="translate(-99.791 -5.246)" fill="#005c65"/>
  <path id="Path_36" data-name="Path 36" d="M285.064,15.955a5.572,5.572,0,0,0-2.362-2.5,7.689,7.689,0,0,0-3.845-.845,8.427,8.427,0,0,0-3.812.856,5.858,5.858,0,0,0-2.511,2.455,8.343,8.343,0,0,0-.911,3.979,8.617,8.617,0,0,0,.816,4.006,5.772,5.772,0,0,0,2.429,2.529,7.737,7.737,0,0,0,3.834.844,7.9,7.9,0,0,0,3.729-.872,5.965,5.965,0,0,0,2.455-2.5,8.874,8.874,0,0,0,.928-4.062,8.422,8.422,0,0,0-.75-3.889m-3.528,7.629a3.284,3.284,0,0,1-2.756,1.261,3.588,3.588,0,0,1-2.112-.6,3.712,3.712,0,0,1-1.3-1.689,6.84,6.84,0,0,1-.444-2.589,6.775,6.775,0,0,1,.483-2.75,3.436,3.436,0,0,1,1.367-1.612,3.987,3.987,0,0,1,2.084-.527,3.238,3.238,0,0,1,3.245,2.211,7.051,7.051,0,0,1,.411,2.534,6.076,6.076,0,0,1-.978,3.762" transform="translate(-110.682 -5.138)" fill="#005c65"/>
  <path id="Path_37" data-name="Path 37" d="M28.385,19.8a1.334,1.334,0,0,1-.861-.679C25.783,16.4,26.769,8,27.8,3.348l-2.684-.9C20.2,13.283,14.04,21.991,11.939,21.1c-1.865-.793.049-10.009,4.016-19.337L13.887,0,0,8.766l1.518,2.405L11.943,4.427c-.621,1.7-1.519,4.069-2.125,6.213-1.37,4.846-2.756,11.474,1.008,13.074a3.482,3.482,0,0,0,1.38.286c2.714,0,5.909-3.137,9.871-9.7A40.55,40.55,0,0,0,24.2,10.159a27.038,27.038,0,0,0-.335,5.638,10.65,10.65,0,0,0,1.261,4.853,4.193,4.193,0,0,0,2.654,1.925c4.3.926,8.142-6.185,9.326-9.293H34.035c-1.487,3.322-4.2,6.825-5.65,6.514" fill="#005c65"/>
</svg>
