<?xml version="1.0"?>
<svg width="660" height="432" xmlns="http://www.w3.org/2000/svg" xmlns:svg="http://www.w3.org/2000/svg" clip-rule="evenodd" fill-rule="evenodd" stroke-linejoin="round" version="1.1" xml:space="preserve">
 <g class="layer">
  <title>Layer 1</title>
  <g id="svg_1" transform="matrix(1 0 0 1 -630.21 -744.44)">
   <path d="m1059.39,1028.26c2.25,36.95 10.29,67.91 22.64,87.19c11.79,18.39 28.25,30.33 47.61,34.51c18.6,4 37.65,0.23 56.63,-11.23c16.13,-9.74 32.26,-25.04 47.94,-45.47c27.25,-35.49 45.81,-73.06 55.6,-100.94l-47.88,-16.76c-21.93,62.52 -67.41,129.53 -97.81,125.65c-24.01,-3.06 -31.95,-43.85 -34.41,-66.11c-7.4,-66.99 6.02,-167.69 19.92,-230.58l-47.88,-15.97c-84.15,185.47 -188.67,336.36 -231.27,336.38c-2.14,0 -4.11,-0.38 -5.92,-1.15c-8.26,-3.51 -12.64,-15.95 -13.03,-36.96c-0.37,-19.81 2.98,-47.34 9.68,-79.61c13.94,-67.1 41.42,-151.42 75.4,-231.34l-36.95,-31.43l-249.45,157.44l27.07,42.89l187.85,-121.51l-0.22,0.61c-1.53,4.18 -3.14,8.59 -4.83,13.18c-10.68,29.08 -23.98,65.26 -33.38,98.54c-24.62,87.07 -49.54,206.16 18.01,234.88c8,3.4 16.32,5.12 24.73,5.12c24.58,0 50.81,-14.04 80.19,-42.91c29.43,-28.92 61.21,-71.94 97.16,-131.51c12.04,-19.96 28.47,-51.93 38.22,-74.36l0.66,-1.51l-0.24,1.63c-7.77,51.91 -7.16,82.71 -6.02,101.36l-0.02,-0.03z" fill="#ffffff" fill-rule="nonzero" id="svg_2"/>
  </g>
 </g>
</svg>