<?xml version="1.0" encoding="utf-8"?>
<!-- Generator: Adobe Illustrator 27.9.0, SVG Export Plug-In . SVG Version: 6.00 Build 0)  -->
<svg version="1.1" id="Warstwa_1" xmlns="http://www.w3.org/2000/svg" xmlns:xlink="http://www.w3.org/1999/xlink" x="0px" y="0px"
	 viewBox="0 0 348 348" style="enable-background:new 0 0 348 348;" xml:space="preserve">
<style type="text/css">
	.st0{clip-path:url(#SVGID_00000107576838767166075510000009278029973903586735_);fill:#F5D7BA;}
</style>
<g>
	<defs>
		<rect id="SVGID_1_" width="348" height="348"/>
	</defs>
	<clipPath id="SVGID_00000114761075745461785360000011398534637107925126_">
		<use xlink:href="#SVGID_1_"  style="overflow:visible;"/>
	</clipPath>
	<path id="Path_11" style="clip-path:url(#SVGID_00000114761075745461785360000011398534637107925126_);fill:#F5D7BA;" d="
		M213.4,200.5c0.9,14.6,4.1,26.8,8.9,34.5c4.7,7.3,11.2,12,18.8,13.6c7.4,1.6,14.9,0.1,22.4-4.4c6.4-3.9,12.8-9.9,18.9-18
		c9.3-12.1,16.7-25.6,22-39.9l-18.9-6.6c-8.7,24.7-26.6,51.2-38.7,49.7c-9.5-1.2-12.6-17.3-13.6-26.1c-2.9-26.5,2.4-66.3,7.9-91.1
		l-18.9-6.3c-33.3,73.3-74.6,133-91.4,133c-0.8,0-1.6-0.1-2.3-0.5c-3.3-1.4-5-6.3-5.1-14.6c-0.1-7.8,1.2-18.7,3.8-31.5
		c5.5-26.5,16.4-59.9,29.8-91.4l-14.6-12.4l-98.6,62.2l10.7,17l74.2-48l-0.1,0.2c-0.6,1.7-1.2,3.4-1.9,5.2
		c-4.2,11.5-9.5,25.8-13.2,38.9c-9.7,34.4-19.6,81.5,7.1,92.8c3.1,1.3,6.4,2,9.8,2c9.7,0,20.1-5.6,31.7-17
		c11.6-11.4,24.2-28.4,38.4-52c5.6-9.5,10.6-19.3,15.1-29.4l0.3-0.6l-0.1,0.6C212.7,180.9,212.9,193.1,213.4,200.5"/>
</g>
</svg>
