<svg xmlns="http://www.w3.org/2000/svg" width="116" height="112" viewBox="0 0 116 112">
  <g id="Group_553" data-name="Group 553" transform="translate(-686 -1879)">
    <rect id="Rectangle_367" data-name="Rectangle 367" width="116" height="112" transform="translate(686 1879)" fill="none"/>
    <g id="Group_537" data-name="Group 537" transform="translate(-576.001 -975.404)">
      <rect id="Rectangle_358" data-name="Rectangle 358" width="57.578" height="3.001" transform="translate(1309.132 2936.313)" fill="#004d54"/>
      <path id="Path_480" data-name="Path 480" d="M48.157,16.1a8.048,8.048,0,1,1,8.048-8.048A8.057,8.057,0,0,1,48.157,16.1m0-13.1a5.048,5.048,0,1,0,5.048,5.048A5.053,5.053,0,0,0,48.157,3" transform="translate(1273.001 2875.404)" fill="#004d54"/>
      <path id="Path_481" data-name="Path 481" d="M20.962,52.816a8.048,8.048,0,1,1,8.048-8.048,8.057,8.057,0,0,1-8.048,8.048m0-13.1a5.048,5.048,0,1,0,5.048,5.048,5.053,5.053,0,0,0-5.048-5.048" transform="translate(1273.001 2875.404)" fill="#004d54"/>
      <path id="Path_482" data-name="Path 482" d="M73.55,42.243C69.736,20.632,65.16,16.1,61.993,16.1c-2.894,0-5.258,4.515-7.76,9.3-3.507,6.7-7.482,14.294-15.172,14.294v-3c5.874,0,9.25-6.449,12.514-12.686,2.935-5.607,5.708-10.9,10.418-10.9,6.454,0,11.065,9.1,14.511,28.626Z" transform="translate(1273.001 2875.404)" fill="#004d54"/>
      <path id="Path_483" data-name="Path 483" d="M12.237,70.509H0v-3H12.237c10.145,0,13.495-7.151,16.451-13.459,2.2-4.7,4.283-9.144,8.956-9.144H93.709v3H37.644c-2.632,0-4.086,2.818-6.24,7.416-3,6.409-7.115,15.187-19.167,15.187" transform="translate(1273.001 2875.404)" fill="#004d54"/>
    </g>
  </g>
</svg>
