<svg xmlns="http://www.w3.org/2000/svg" width="116" height="112" viewBox="0 0 116 112">
  <g id="Group_560" data-name="Group 560" transform="translate(-831 -2017)">
    <rect id="Rectangle_366" data-name="Rectangle 366" width="116" height="112" transform="translate(831 2017)" fill="none"/>
    <g id="Group_548" data-name="Group 548" transform="translate(-250.613 -1159)">
      <path id="Path_503" data-name="Path 503" d="M27.009,102.425A13.7,13.7,0,0,1,23.664,102c-12.034-3.03-7.709-20.9-4.848-32.731.919-3.8,1.713-7.077,1.713-8.786,0-2.94-1.614-5.836-3.483-9.189C14.668,47.029,11.971,42.19,12.1,36a16.954,16.954,0,0,1,6.644-13.426c4.408-3.288,10.135-4.189,16.128-2.539,6.664,1.836,11.793,4.918,15.244,9.161,9.7,11.926,4.045,29.977,1.009,39.674-.441,1.407-.821,2.621-1.09,3.61-6.772,24.879-16.349,29.946-23.021,29.947m2.12-80.2a14.175,14.175,0,0,0-8.6,2.747,13.973,13.973,0,0,0-5.439,11.081c-.108,5.38,2.272,9.651,4.573,13.78,1.986,3.563,3.862,6.93,3.862,10.649,0,2.067-.793,5.344-1.8,9.492C18.45,83.545,15.952,96.968,24.4,99.1c12.914,3.248,20.2-18.082,22.739-27.4.284-1.043.672-2.283,1.122-3.718,2.868-9.16,8.206-26.21-.474-36.886-3.049-3.748-7.662-6.494-13.713-8.161a18.618,18.618,0,0,0-4.941-.695" transform="translate(1109.612 3181)" fill="#004d54"/>
      <path id="Path_504" data-name="Path 504" d="M28.224,93.927a8.383,8.383,0,0,1-.991-.059c-3.193-.371-4.8-4.123-4.523-10.563.294-6.863,3.351-19.758,9.4-19.942a4.553,4.553,0,0,1,3.9,1.653c2.042,2.582.892,7.156.754,7.668l-2.9-.778c.308-1.164.664-3.928-.211-5.03a1.57,1.57,0,0,0-1.458-.514c-2.517.076-6.116,8.369-6.489,17.072-.2,4.727.789,7.328,1.872,7.455,8.007.915,12.143-16.721,13.707-23.366.242-1.03.661-2.355,1.146-3.889,1.776-5.619,4.46-14.11,2.934-21.485A16.535,16.535,0,0,0,32.818,29.343c-4.84-1.059-8.136.069-10.687,3.654l-2.444-1.739c3.254-4.575,7.757-6.161,13.771-4.846A19.545,19.545,0,0,1,48.3,41.54c1.685,8.142-1.141,17.082-3.011,23-.466,1.477-.869,2.752-1.086,3.673C42.371,76,38.152,93.925,28.224,93.927" transform="translate(1109.612 3181)" fill="#004d54"/>
      <path id="Path_505" data-name="Path 505" d="M9.962,25.588a7.8,7.8,0,0,1-4.387-1.481A13.057,13.057,0,0,1,.945,17.97a13.041,13.041,0,0,1-.628-7.661A7.035,7.035,0,0,1,4.5,5.128a7.035,7.035,0,0,1,6.572,1.08,13.046,13.046,0,0,1,4.63,6.137c2.143,5.624.581,11.264-3.557,12.842a6.114,6.114,0,0,1-2.186.4M6.68,7.732a3.083,3.083,0,0,0-1.109.2,4.148,4.148,0,0,0-2.342,3.1,10.034,10.034,0,0,0,.52,5.874,10.029,10.029,0,0,0,3.522,4.731,4.144,4.144,0,0,0,3.808.751c2.481-.945,3.315-5.053,1.823-8.97A10.039,10.039,0,0,0,9.38,8.683a4.865,4.865,0,0,0-2.7-.951" transform="translate(1109.612 3181)" fill="#004d54"/>
      <path id="Path_506" data-name="Path 506" d="M23.413,17.862A6.41,6.41,0,0,1,19,15.915,10.79,10.79,0,0,1,16.058,10.2C15.111,5.246,17.286.807,21.008.1s7.381,2.614,8.328,7.568h0a10.789,10.789,0,0,1-.623,6.393,6.136,6.136,0,0,1-4.328,3.713,5.2,5.2,0,0,1-.972.091M22,3a2.31,2.31,0,0,0-.43.04c-2,.383-3.177,3.4-2.567,6.6a7.887,7.887,0,0,0,2.08,4.123,3.263,3.263,0,0,0,2.738,1.062,3.264,3.264,0,0,0,2.155-2,7.891,7.891,0,0,0,.413-4.6C25.823,5.262,23.879,3,22,3" transform="translate(1109.612 3181)" fill="#004d54"/>
      <path id="Path_507" data-name="Path 507" d="M36.188,18.05c-.11,0-.22,0-.331-.011-3.263-.23-5.581-3.773-5.279-8.066s3.106-7.478,6.356-7.248,5.582,3.773,5.28,8.066h0c-.292,4.147-2.908,7.258-6.026,7.258m.426-12.336c-1.466,0-2.873,2.045-3.044,4.469-.174,2.485.992,4.758,2.5,4.864,1.489.1,2.978-1.981,3.153-4.466s-.992-4.758-2.5-4.864c-.036,0-.073,0-.109,0" transform="translate(1109.612 3181)" fill="#004d54"/>
      <path id="Path_508" data-name="Path 508" d="M46.6,22.233a3.907,3.907,0,0,1-1.166-.177A4.455,4.455,0,0,1,42.6,19.028a7.45,7.45,0,0,1,.07-4.436,7.447,7.447,0,0,1,2.471-3.685,4.207,4.207,0,0,1,6.888,2.155,7.45,7.45,0,0,1-.07,4.436h0a7.456,7.456,0,0,1-2.472,3.684,4.764,4.764,0,0,1-2.888,1.05m1.42-9.378a1.856,1.856,0,0,0-1.048.43,4.49,4.49,0,0,0-1.438,2.2,4.507,4.507,0,0,0-.075,2.63,1.249,1.249,0,0,0,2.2.688A4.5,4.5,0,0,0,49.1,16.6a4.506,4.506,0,0,0,.074-2.63A1.583,1.583,0,0,0,48.3,12.9a.948.948,0,0,0-.281-.042" transform="translate(1109.612 3181)" fill="#004d54"/>
      <path id="Path_509" data-name="Path 509" d="M53.851,30.158a3.522,3.522,0,0,1-1.587-.372c-2.12-1.063-2.719-4.012-1.365-6.714s4.077-3.986,6.2-2.923,2.719,4.012,1.365,6.714a5.477,5.477,0,0,1-4.609,3.3m1.667-7.376a2.67,2.67,0,0,0-1.937,1.635c-.644,1.284-.41,2.468.028,2.687s1.525-.3,2.169-1.586.41-2.468-.027-2.687a.527.527,0,0,0-.233-.049" transform="translate(1109.612 3181)" fill="#004d54"/>
    </g>
  </g>
</svg>
