<svg xmlns="http://www.w3.org/2000/svg" width="116" height="112" viewBox="0 0 116 112">
  <g id="Group_562" data-name="Group 562" transform="translate(-538 -2018)">
    <rect id="Rectangle_379" data-name="Rectangle 379" width="116" height="112" transform="translate(538 2018)" fill="none"/>
    <g id="Group_546" data-name="Group 546" transform="translate(-213 -1020.098)">
      <path id="Path_492" data-name="Path 492" d="M50.1,48.806a76.057,76.057,0,0,1,5.509-11.337C63.98,24.1,76.849,19.2,82.483,18.482l-.38-2.975a22.652,22.652,0,0,0-2.354.45l-.386-2.272,2.258-.383-.5-2.958-2.258.383L78.5,8.573l2.258-.384-.5-2.958-2.259.384-.386-2.274,1.34-.228c.295-.037.6-.085.884-.112l0-.037.038-.007-.088-.52L79.549.015c-.058,0-.121.017-.179.023L79.363,0l-.9.154C69.1,1.394,55.325,7.686,45.926,19.1a96.819,96.819,0,0,0-8.158,12.588C30.524,44.15,21.506,59.664,1.347,65.928L0,66.347l.335,1.37c.63,2.573,3.158,4.907,6.936,6.4a25.908,25.908,0,0,0,9.379,1.644,32.453,32.453,0,0,0,17.72-5.382c9.219-6,12.529-13.917,15.732-21.576M39.49,34.689c.166.1.357.233.6.41a4.27,4.27,0,0,1,.976,5.951L29.791,56.745a4.247,4.247,0,0,1-6.829.12C30.3,50.084,35.24,41.977,39.49,34.689M8.375,71.33a10.442,10.442,0,0,1-4.5-3.072A53.035,53.035,0,0,0,20.7,58.846a7.265,7.265,0,0,0,11.526-.35L43.505,42.8a7.273,7.273,0,0,0-1.66-10.138c-.294-.211-.568-.4-.845-.567A86.052,86.052,0,0,1,48.243,21,53.263,53.263,0,0,1,74.667,3.958L76.85,16.806A45.978,45.978,0,0,0,53.069,35.877a78.684,78.684,0,0,0-5.736,11.772c-3.166,7.572-6.156,14.725-14.6,20.219-9.243,6.014-18.9,5.623-24.359,3.462" transform="translate(755 3042.099)" fill="#004d54"/>
      <path id="Path_493" data-name="Path 493" d="M65.179,16.038a1.562,1.562,0,1,0-2.151-.5,1.562,1.562,0,0,0,2.151.5" transform="translate(755 3042.099)" fill="#004d54"/>
      <path id="Path_494" data-name="Path 494" d="M106.061,36.326c-.63-2.572-3.157-4.906-6.935-6.4-6.125-2.426-16.9-2.9-27.1,3.736-9.218,6-12.529,13.918-15.73,21.576a76.278,76.278,0,0,1-5.511,11.338C42.416,79.942,29.548,84.839,23.913,85.561l.381,2.976a22.639,22.639,0,0,0,2.353-.45l.386,2.272-2.258.383.5,2.958,2.259-.383.366,2.154-2.259.383.5,2.958,2.26-.383.386,2.274-1.342.228c-.294.038-.6.085-.882.112l0,.037-.039.007.09.527.227,2.415c.058,0,.121-.017.179-.023l.006.039.9-.154c9.357-1.242,23.137-7.534,32.534-18.943A96.611,96.611,0,0,0,68.628,72.36C75.873,59.894,84.89,44.379,105.05,38.115L106.4,37.7ZM66.907,69.354c-.168-.1-.359-.233-.6-.409a4.269,4.269,0,0,1-.975-5.951L76.607,47.3a4.241,4.241,0,0,1,6.827-.12c-7.34,6.78-12.277,14.887-16.527,22.175M85.7,45.2a7.272,7.272,0,0,0-11.527.35L62.892,61.243a7.273,7.273,0,0,0,1.66,10.138c.294.211.569.4.846.566a86.141,86.141,0,0,1-7.243,11.094A53.265,53.265,0,0,1,31.73,100.086L29.546,87.238A45.984,45.984,0,0,0,53.328,68.167a78.445,78.445,0,0,0,5.735-11.773c3.166-7.572,6.157-14.724,14.6-20.218,9.242-6.014,18.9-5.623,24.36-3.462a10.46,10.46,0,0,1,4.5,3.071A53.043,53.043,0,0,0,85.7,45.2" transform="translate(755 3042.099)" fill="#004d54"/>
      <path id="Path_495" data-name="Path 495" d="M41.219,88.006a1.562,1.562,0,1,0,2.151.5,1.562,1.562,0,0,0-2.151-.5" transform="translate(755 3042.099)" fill="#004d54"/>
    </g>
  </g>
</svg>
