<svg xmlns="http://www.w3.org/2000/svg" width="116" height="112" viewBox="0 0 116 112">
  <g id="Group_564" data-name="Group 564" transform="translate(-246 -2018)">
    <rect id="Rectangle_381" data-name="Rectangle 381" width="116" height="112" transform="translate(246 2018)" fill="none"/>
    <g id="Group_544" data-name="Group 544" transform="translate(-693.535 -979)">
      <path id="Path_462" data-name="Path 462" d="M23.128,50.529,30.194,51.8l.532-2.952-6.452-1.163c.865-2.259,1.647-4.556,2.386-6.871l7.966,1.106.412-2.971-7.473-1.038c.711-2.424,1.34-4.879,1.911-7.352l6.281.623.3-2.986-5.927-.588A130.608,130.608,0,0,0,32.2,14.148l-2.986-.3a127.33,127.33,0,0,1-2.087,13.463l-8.83-.876L18,29.424l8.463.839c-.569,2.433-1.189,4.851-1.9,7.235l-7.2-1-.412,2.972,6.693.929c-.736,2.275-1.526,4.526-2.387,6.745l-8.093-1.459-.532,2.953,7.479,1.348q-1.479,3.555-3.176,6.99l-7.3-1.316L9.1,58.612l6.434,1.16c-1.194,2.278-2.466,4.5-3.8,6.689L4.971,64.1l-.987,2.833,6.12,2.134A113.551,113.551,0,0,1,0,82.5l2.253,1.981A116.477,116.477,0,0,0,13.021,70.085l7.81,2.723.987-2.833-7.186-2.506c1.4-2.331,2.74-4.708,3.991-7.141l8.039,1.449.532-2.952-7.184-1.3q1.663-3.442,3.118-7" transform="translate(969.535 3011)" fill="#004d54"/>
      <path id="Path_463" data-name="Path 463" d="M4.229,15.365l2.922-.68L4.989,5.392A5,5,0,0,1,4.8,3.32c.041-.177.052-.225.308-.284C5.279,3,5.736,2.89,6.25,5.1l2.493,10.71c.513,2.209.055,2.316-.117,2.356s-.631.147-1.146-2.063l-2.921.681c.607,2.607,1.688,4.061,3.219,4.355l4.047,17.4,2.922-.68L10.7,20.453c1.242-.94,1.573-2.719.967-5.325L9.172,4.418C8.379,1.013,6.782-.439,4.426.114A3.247,3.247,0,0,0,1.874,2.648a7.661,7.661,0,0,0,.193,3.424Z" transform="translate(969.535 3011)" fill="#004d54"/>
      <path id="Path_464" data-name="Path 464" d="M62.546,36.444a3.248,3.248,0,0,0-3.285-1.464A7.675,7.675,0,0,0,56.138,36.4l-9.086,6.192a7.676,7.676,0,0,0-2.461,2.388,3.268,3.268,0,0,0-.419,2.173L29.394,57.221l1.689,2.48L45.868,49.625a3.144,3.144,0,0,0,1.627.449,3.746,3.746,0,0,0,.543-.04,7.675,7.675,0,0,0,3.123-1.417l-1.69-2.479a4.988,4.988,0,0,1-1.863.927c-.18.025-.228.033-.376-.184s-.124-.26-.034-.418a4.985,4.985,0,0,1,1.544-1.4l9.086-6.192a5,5,0,0,1,1.863-.927c.18-.026.228-.032.376.184.1.147.365.536-1.51,1.813l-7.884,5.373L52.362,47.8l7.885-5.373c2.888-1.968,3.662-3.981,2.3-5.981" transform="translate(969.535 3011)" fill="#004d54"/>
    </g>
  </g>
</svg>
