<svg xmlns="http://www.w3.org/2000/svg" width="116" height="112" viewBox="0 0 116 112">
  <g id="Group_555" data-name="Group 555" transform="translate(-978 -1879)">
    <rect id="Rectangle_369" data-name="Rectangle 369" width="116" height="112" transform="translate(978 1879)" fill="none"/>
    <g id="Group_539" data-name="Group 539" transform="translate(357.389 -970.293)">
      <path id="Path_516" data-name="Path 516" d="M4.625,89.844C-1,67.111-2.7,26.756,6.466,17.589c3.717-3.717,8.233-3.948,12.6-4.172a27.1,27.1,0,0,0,6.572-.86c3.171-.974,5.177-8.219,5.7-12.557l2.979.355c-.16,1.347-1.739,13.21-7.8,15.071a29.85,29.85,0,0,1-7.3.987c-3.976.2-7.732.4-10.633,3.3C4.976,23.322,2.925,33.97,2.961,48.925a182.761,182.761,0,0,0,4.576,40.2Z" transform="translate(638.612 2855.293)" fill="#004d54"/>
      <path id="Path_517" data-name="Path 517" d="M14.66,88.453l-2.941-.588c.038-.2,3.944-19.788,3.924-24.878-.02-5.069-4.711-25-4.758-25.2l2.921-.689c.2.833,4.816,20.467,4.837,25.877.021,5.39-3.82,24.66-3.983,25.478" transform="translate(638.612 2855.293)" fill="#004d54"/>
      <path id="Path_518" data-name="Path 518" d="M75.826,89.844l-2.912-.721a182.761,182.761,0,0,0,4.576-40.2c.036-14.955-2.014-25.6-5.626-29.215-2.9-2.9-6.657-3.093-10.633-3.3a29.857,29.857,0,0,1-7.3-.987C47.876,13.565,46.3,1.7,46.137.355L49.116,0c.52,4.338,2.526,11.583,5.7,12.557a27.1,27.1,0,0,0,6.572.86c4.368.224,8.884.455,12.6,4.172,9.167,9.167,7.463,49.523,1.841,72.255" transform="translate(638.612 2855.293)" fill="#004d54"/>
      <path id="Path_519" data-name="Path 519" d="M65.791,88.453c-.164-.818-4.005-20.088-3.983-25.478.021-5.41,4.64-25.044,4.837-25.877l2.92.689c-.047.2-4.737,20.131-4.757,25.2-.021,5.09,3.885,24.68,3.924,24.878Z" transform="translate(638.612 2855.293)" fill="#004d54"/>
      <rect id="Rectangle_384" data-name="Rectangle 384" width="7.12" height="3" transform="translate(675.278 2874.202)" fill="#004d54"/>
      <rect id="Rectangle_385" data-name="Rectangle 385" width="7.12" height="3" transform="translate(675.278 2881.962)" fill="#004d54"/>
      <rect id="Rectangle_386" data-name="Rectangle 386" width="7.12" height="3" transform="translate(675.278 2889.723)" fill="#004d54"/>
      <rect id="Rectangle_387" data-name="Rectangle 387" width="7.12" height="3" transform="translate(675.278 2897.483)" fill="#004d54"/>
      <rect id="Rectangle_388" data-name="Rectangle 388" width="7.12" height="3" transform="translate(675.278 2905.243)" fill="#004d54"/>
      <rect id="Rectangle_389" data-name="Rectangle 389" width="7.12" height="3" transform="translate(675.278 2913.004)" fill="#004d54"/>
      <rect id="Rectangle_390" data-name="Rectangle 390" width="7.12" height="3" transform="translate(675.278 2920.764)" fill="#004d54"/>
      <rect id="Rectangle_391" data-name="Rectangle 391" width="7.12" height="3" transform="translate(675.278 2928.525)" fill="#004d54"/>
      <rect id="Rectangle_392" data-name="Rectangle 392" width="7.12" height="3" transform="translate(675.278 2936.285)" fill="#004d54"/>
      <rect id="Rectangle_393" data-name="Rectangle 393" width="7.12" height="3" transform="translate(675.278 2944.046)" fill="#004d54"/>
      <rect id="Rectangle_394" data-name="Rectangle 394" width="7.12" height="3" transform="translate(675.278 2951.806)" fill="#004d54"/>
    </g>
  </g>
</svg>
