<svg xmlns="http://www.w3.org/2000/svg" width="116" height="112" viewBox="0 0 116 112">
  <g id="Group_552" data-name="Group 552" transform="translate(-538 -1879)">
    <rect id="Rectangle_365" data-name="Rectangle 365" width="116" height="112" transform="translate(538 1879)" fill="none"/>
    <g id="Group_536" data-name="Group 536" transform="translate(-208.973 -403.083)">
      <path id="Path_529" data-name="Path 529" d="M25.214,43.366c-1.45,3.207-4.847,10.716-4.846,19.551h3c0-8.188,3.209-15.284,4.579-18.315.284-.626.492-1.092.592-1.375l-2.825-1.008c-.084.237-.263.624-.5,1.147" transform="translate(749.973 2307.083)" fill="#004d54"/>
      <path id="Path_530" data-name="Path 530" d="M47.823,24.318l-2.95-.542a4.621,4.621,0,0,1-5.368,3.7l-.542,2.95a7.606,7.606,0,0,0,8.86-6.11" transform="translate(749.973 2307.083)" fill="#004d54"/>
      <path id="Path_531" data-name="Path 531" d="M39.837,32.218l-.542,2.95a10.692,10.692,0,0,0,12.461-8.593l-2.95-.542a7.716,7.716,0,0,1-8.969,6.185" transform="translate(749.973 2307.083)" fill="#004d54"/>
      <rect id="Rectangle_396" data-name="Rectangle 396" width="3" height="3.546" transform="translate(803.638 2342.939)" fill="#004d54"/>
      <path id="Path_532" data-name="Path 532" d="M84.617,42.219l-2.826,1.007c.1.284.309.751.593,1.378,1.37,3.03,4.579,10.126,4.579,18.313h3c0-8.834-3.4-16.343-4.846-19.55-.237-.523-.416-.911-.5-1.148" transform="translate(749.973 2307.083)" fill="#004d54"/>
      <path id="Path_533" data-name="Path 533" d="M85.165,17.559c4.034,3,6.4,9.054,6.833,17.521l.027.517,16.032,18.466,2.266-1.967L94.965,34.407c-.562-9.248-3.256-15.725-8.011-19.256-2.048-1.521-6.589-1.662-9.155-1.607A29.062,29.062,0,0,1,84.272,2.106L82.136,0c-.292.3-6.474,6.675-7.731,15.224a5.6,5.6,0,0,0-5.093-.538,2.478,2.478,0,0,0-1.435,1.552,2.506,2.506,0,0,0,.282,2.124c1.284,2,4.389,6.8,6.233,9.361,1.347,7.633,8.737,12.053,10.629,13.069l11.52,20.1,2.6-1.491L87.173,38.516l-.415-.2c-.083-.041-8.385-4.166-9.459-11.4l-.055-.366-.218-.3c-1.612-2.206-4.486-6.623-5.972-8.928,1.365-.132,2.986,1,4.61,3.257l5.928,6.846,2.266-1.965-5.8-6.688c-.292-.4-.58-.761-.867-1.1.012-.371.02-.743.055-1.108,2.857-.1,6.74.124,7.918,1" transform="translate(749.973 2307.083)" fill="#004d54"/>
      <path id="Path_534" data-name="Path 534" d="M42.446,16.237a2.478,2.478,0,0,0-1.436-1.551,5.594,5.594,0,0,0-5.092.538C34.661,6.675,28.479.3,28.187,0L26.05,2.106a29.044,29.044,0,0,1,6.474,11.438c-2.566-.055-7.107.085-9.155,1.607-4.755,3.531-7.449,10.008-8.011,19.256L0,52.1l2.266,1.967L18.3,35.6l.026-.516c.437-8.467,2.8-14.526,6.833-17.521,1.175-.872,5.061-1.1,7.919-1,.035.364.043.736.055,1.106-.287.338-.576.7-.867,1.1l-5.8,6.689,2.266,1.965,5.843-6.739.085-.107c1.624-2.259,3.236-3.384,4.61-3.257-1.486,2.306-4.36,6.722-5.972,8.928l-.218.3-.055.366c-1.074,7.238-9.376,11.363-9.457,11.4l-.418.2L11.179,59.4l2.6,1.491,11.52-20.1c1.893-1.016,9.284-5.436,10.63-13.07,1.844-2.563,4.949-7.36,6.234-9.36a2.515,2.515,0,0,0,.281-2.125" transform="translate(749.973 2307.083)" fill="#004d54"/>
      <path id="Path_535" data-name="Path 535" d="M65.458,23.776l-2.95.542a7.606,7.606,0,0,0,8.86,6.11l-.542-2.95a4.62,4.62,0,0,1-5.368-3.7" transform="translate(749.973 2307.083)" fill="#004d54"/>
      <path id="Path_536" data-name="Path 536" d="M61.525,26.033l-2.95.542a10.692,10.692,0,0,0,12.461,8.593l-.542-2.95a7.714,7.714,0,0,1-8.969-6.185" transform="translate(749.973 2307.083)" fill="#004d54"/>
    </g>
  </g>
</svg>
