<svg xmlns="http://www.w3.org/2000/svg" width="116" height="112" viewBox="0 0 116 112">
  <g id="Group_559" data-name="Group 559" transform="translate(-1562 -1879)">
    <rect id="Rectangle_376" data-name="Rectangle 376" width="116" height="112" transform="translate(1562 1879)" fill="none"/>
    <g id="Group_543" data-name="Group 543" transform="translate(507.15 -1167)">
      <path id="Path_465" data-name="Path 465" d="M53.838,26.654,58.506,14.61A10.726,10.726,0,0,0,48.507,0H14.458a10.726,10.726,0,0,0-10,14.609L9.117,26.628A31.481,31.481,0,0,0,9.6,71.413a7.937,7.937,0,0,0,5.553,2.2l32.642.017h0a7.934,7.934,0,0,0,5.552-2.2,31.224,31.224,0,0,0,9.617-22.65,33.052,33.052,0,0,0-9.126-22.131M51.264,69.277a4.953,4.953,0,0,1-3.469,1.354h0L15.15,70.614a4.95,4.95,0,0,1-3.469-1.357A28.479,28.479,0,0,1,11.9,28.1l.731-.693L7.256,13.524A7.725,7.725,0,0,1,14.458,3H48.507a7.726,7.726,0,0,1,7.2,10.525L50.339,27.38l.694.691a30.07,30.07,0,0,1,8.931,20.714,28.252,28.252,0,0,1-8.7,20.492" transform="translate(1081.85 3065)" fill="#004d54"/>
      <path id="Path_466" data-name="Path 466" d="M43.934,23.162l1.523.777,3.461-9.752a4.68,4.68,0,0,0-4.362-6.374H18.408a4.68,4.68,0,0,0-4.377,6.333L17.5,23.91l1.51-.736A28.2,28.2,0,0,1,31.482,20.3a26.393,26.393,0,0,1,12.452,2.858M16.843,13.1a1.679,1.679,0,0,1,1.565-2.288H44.556a1.658,1.658,0,0,1,1.386.731,1.681,1.681,0,0,1,.164,1.6l-2.348,6.615A29.563,29.563,0,0,0,31.482,17.3a31.187,31.187,0,0,0-12.267,2.479Z" transform="translate(1081.85 3065)" fill="#004d54"/>
      <path id="Path_467" data-name="Path 467" d="M31.482,29.4a18.057,18.057,0,0,0-11.023,3.711l1.816,2.388A15.222,15.222,0,0,1,46.7,47.615h3A18.24,18.24,0,0,0,31.482,29.4" transform="translate(1081.85 3065)" fill="#004d54"/>
    </g>
  </g>
</svg>
